<svg width="66" height="66" viewBox="0 0 66 66" fill="none" xmlns="http://www.w3.org/2000/svg">
<g clip-path="url(#clip0_96:1309)">
<path d="M66 33C66 51.2254 51.2254 66 33 66C23.3923 66 14.7436 61.8945 8.71335 55.3417C7.12935 53.6216 5.72718 51.7319 4.5338 49.7047C1.65269 44.8046 0 39.0949 0 33C0 14.7746 14.7746 0 33 0C39.0962 0 44.8059 1.65269 49.7047 4.53514C51.7319 5.72718 53.6203 7.12935 55.3403 8.71469C61.8932 14.7422 66 23.3923 66 33Z" fill="#F0CD00"/>
<path d="M66.0002 33C66.0002 50.8146 51.8856 65.3319 34.2286 65.9771C16.5716 65.3319 2.45703 50.8146 2.45703 33C2.45703 15.1854 16.5716 0.668072 34.2286 0.0228882C51.8856 0.668072 66.0002 15.1854 66.0002 33Z" fill="#FFDE50"/>
<path d="M55.3407 8.71471L8.71373 55.3417C7.12973 53.6216 5.72757 51.7319 4.53418 49.7047L49.7051 4.53516C51.7322 5.7272 53.6207 7.12936 55.3407 8.71471Z" fill="#FFEA94"/>
<path d="M63.7237 20.9354L20.9342 63.725C17.9049 62.5343 15.0938 60.9085 12.5791 58.9245L58.9246 12.579C60.9086 15.0938 62.5344 17.9048 63.7237 20.9354Z" fill="#FFEA94"/>
<path d="M58.6435 33C58.6435 47.1617 47.1622 58.643 33.0004 58.643C28.068 58.643 23.4614 57.2502 19.5513 54.8365C17.8474 53.7859 16.2769 52.54 14.868 51.1311C13.8322 50.0966 12.8839 48.972 12.0367 47.7718C10.8702 46.1191 9.89371 44.3223 9.14077 42.4137C8.0255 39.5919 7.39783 36.5235 7.36012 33.3151C7.35742 33.2101 7.35742 33.105 7.35742 33C7.35742 18.8382 18.8374 7.35693 33.0004 7.35693C33.1055 7.35693 33.2119 7.35693 33.317 7.35963C36.5254 7.39734 39.5924 8.02636 42.4142 9.14028C44.3228 9.89457 46.1196 10.8697 47.7723 12.0362C48.9724 12.8848 50.0958 13.8317 51.1316 14.8675C52.5405 16.275 53.7864 17.8469 54.837 19.5508C57.2507 23.4609 58.6435 28.0675 58.6435 33Z" fill="#FAA300"/>
<path d="M51.1316 14.8675L14.868 51.1311C13.8322 50.0966 12.8839 48.972 12.0367 47.7718C10.8702 46.1191 9.89371 44.3223 9.14077 42.4137C8.0255 39.5919 7.39783 36.5235 7.36012 33.3151C7.35742 33.2101 7.35742 33.105 7.35742 33C7.35742 18.8382 18.8374 7.35693 33.0004 7.35693C33.1055 7.35693 33.2119 7.35693 33.317 7.35963C36.5254 7.39734 39.5924 8.02636 42.4142 9.14028C44.3228 9.89457 46.1196 10.8698 47.7723 12.0362C48.9724 12.8848 50.0958 13.8317 51.1316 14.8675Z" fill="#FFBD00"/>
<path d="M58.6427 33C58.6427 47.1617 47.1614 58.643 32.9997 58.643C32.5135 58.643 32.0313 58.6295 31.5518 58.6026C45.04 57.8523 55.7455 46.6754 55.7455 33C55.7455 19.3245 45.04 8.14759 31.5518 7.39734C32.0313 7.3704 32.5135 7.35693 32.9997 7.35693C47.1614 7.35693 58.6427 18.8382 58.6427 33Z" fill="#F68E00"/>
<path d="M22.7925 25.6032H36.8011C39.0848 25.6032 41.4106 27.5301 40.9518 29.7813L38.7727 40.4714C37.9402 44.5586 35.3809 48.0583 31.2354 48.0583H28.3577C24.2132 48.0583 21.6532 44.5592 20.8204 40.4714L18.6413 29.7813C18.1829 27.5301 20.5092 25.6032 22.7925 25.6032Z" fill="#FAA300"/>
<path d="M34.4406 19.1395L32.5997 25.3188C32.2958 26.3393 31.299 27.0519 30.176 27.0519C29.0531 27.0519 28.0567 26.3393 27.7525 25.3191L25.1518 16.5917C24.9208 15.8163 25.3995 15.0109 26.2211 14.7927C27.0426 14.5746 27.8959 15.0265 28.1271 15.802L30.1759 22.6772L31.4651 18.3498C31.6961 17.5743 32.549 17.1224 33.371 17.3405C34.1929 17.5587 34.6716 18.364 34.4406 19.1395Z" fill="#FAA300"/>
<path d="M40.9528 29.7812L38.8138 40.4714C37.9966 44.5586 35.4844 48.0583 31.4152 48.0583H28.5904C25.6022 48.0583 23.4546 46.1695 22.2002 43.5474C29.0622 41.6385 34.1906 34.3461 34.2921 25.6032H36.8785C39.1202 25.6031 41.4032 27.53 40.9528 29.7812Z" fill="#FAA300"/>
<path d="M25.9956 26.8848H40.0042C42.2879 26.8848 44.6138 28.8116 44.1549 31.0628L41.9758 41.753C41.1434 45.8401 38.584 49.3398 34.4385 49.3398H31.5608C27.4163 49.3398 24.8564 45.8408 24.0235 41.753L21.8444 31.0628C21.3861 28.8116 23.7123 26.8848 25.9956 26.8848Z" fill="#E31D78"/>
<path d="M37.6437 20.4211L35.8028 26.6004C35.4989 27.6208 34.5021 28.3335 33.3792 28.3335C32.2562 28.3335 31.2599 27.6208 30.9556 26.6006L28.355 17.8733C28.1239 17.0979 28.6027 16.2924 29.4242 16.0742C30.2457 15.8562 31.0991 16.308 31.3302 17.0836L33.379 23.9587L34.6682 19.6314C34.8992 18.8559 35.7521 18.404 36.5741 18.6221C37.396 18.8403 37.8748 19.6455 37.6437 20.4211Z" fill="#899D4D"/>
<path d="M44.1559 31.0627L42.0169 41.753C41.1997 45.8401 38.6875 49.3398 34.6183 49.3398H31.7935C28.8053 49.3398 26.6577 47.4511 25.4033 44.829C32.2654 42.92 37.3937 35.6276 37.4952 26.8848H40.0816C42.3233 26.8846 44.6063 28.8115 44.1559 31.0627Z" fill="#C11564"/>
</g>
<defs>
<clipPath id="clip0_96:1309">
<rect width="66" height="66" fill="white"/>
</clipPath>
</defs>
</svg>
