<svg width="83" height="83" viewBox="0 0 83 83" fill="none" xmlns="http://www.w3.org/2000/svg">
<path d="M32.8772 32.1837H49.2768C51.9503 32.1837 54.6731 34.4367 54.136 37.0688L51.5849 49.5681C50.6104 54.3469 47.6142 58.4388 42.7611 58.4388H39.3923C34.5404 58.4388 31.5435 54.3477 30.5684 49.5681L28.0174 37.0688C27.4809 34.4367 30.2042 32.1837 32.8772 32.1837Z" fill="#E31D78"/>
<path d="M46.5135 24.6262L44.3583 31.8512C44.0025 33.0443 42.8357 33.8776 41.521 33.8776C40.2064 33.8776 39.04 33.0443 38.6839 31.8515L35.6393 21.6472C35.3688 20.7406 35.9293 19.7988 36.891 19.5437C37.8528 19.2888 38.8518 19.8171 39.1224 20.7239L41.5209 28.7625L43.0301 23.7029C43.3005 22.7961 44.299 22.2678 45.2613 22.5227C46.2235 22.7778 46.784 23.7194 46.5135 24.6262Z" fill="#899D4D"/>
<path d="M54.1369 37.0687L51.6328 49.568C50.6762 54.3469 47.7352 58.4388 42.9714 58.4388H39.6645C36.1663 58.4388 33.6521 56.2305 32.1836 53.1646C40.2169 50.9326 46.2205 42.4061 46.3394 32.1837H49.3672C51.9916 32.1836 54.6642 34.4365 54.1369 37.0687Z" fill="#C11564"/>
<path d="M14.8207 41.4997H8.89205C7.25427 41.4997 5.92773 40.1732 5.92773 38.5354V17.7853C5.92773 11.2372 11.2368 5.9281 17.785 5.9281V38.5354C17.785 40.1732 16.4585 41.4997 14.8207 41.4997Z" fill="#1B3285"/>
<path d="M5.92773 19.2675V31.1247C5.92773 24.5766 11.2368 19.2675 17.785 19.2675V7.41028C11.2368 7.41028 5.92773 12.7193 5.92773 19.2675Z" fill="#5492C5"/>
<path d="M40.9941 10.7422L29.1368 0.367102C28.6996 -0.0152928 28.0771 -0.108668 27.548 0.132922C27.0174 0.371549 26.6779 0.899194 26.6779 1.48168V5.92813H17.785C11.2368 5.92813 5.92773 11.2372 5.92773 17.7853V29.6426C5.92773 23.0944 11.2368 17.7853 17.785 17.7853H26.6779V22.2318C26.6779 22.8143 27.0174 23.3419 27.548 23.582C27.7436 23.671 27.9526 23.7139 28.1601 23.7139C28.5129 23.7139 28.8612 23.588 29.1368 23.3464L40.9941 12.9713C41.3143 12.6912 41.4995 12.2851 41.4995 11.8567C41.4995 11.4284 41.3143 11.0238 40.9941 10.7422Z" fill="#2E47A4"/>
<path d="M41.499 14.821V8.8924C41.499 7.25463 42.8256 5.9281 44.4633 5.9281H65.2135C71.7617 5.9281 77.0708 11.2372 77.0708 17.7853H44.4633C42.8256 17.7853 41.499 16.4588 41.499 14.821Z" fill="#1B3285"/>
<path d="M63.7313 5.9281H51.874C58.4222 5.9281 63.7313 11.2372 63.7313 17.7853H75.5886C75.5886 11.2372 70.2795 5.9281 63.7313 5.9281Z" fill="#5492C5"/>
<path d="M82.8677 27.5482C82.6276 27.0176 82.0999 26.6782 81.5174 26.6782H77.071V17.7853C77.071 11.2372 71.7619 5.9281 65.2137 5.9281H53.3564C59.9046 5.9281 65.2137 11.2372 65.2137 17.7853V26.6782H60.7672C60.1847 26.6782 59.6571 27.0176 59.417 27.5482C59.1769 28.0774 59.2688 28.6984 59.6512 29.1371L70.0263 40.9943C70.3094 41.3145 70.714 41.4997 71.1423 41.4997C71.5707 41.4997 71.9768 41.3145 72.2569 40.9943L82.632 29.1371C83.0159 28.6984 83.1078 28.0774 82.8677 27.5482Z" fill="#2E47A4"/>
<path d="M68.1782 41.4998H74.1068C75.7446 41.4998 77.0711 42.8263 77.0711 44.4641V65.2142C77.0711 71.7623 71.762 77.0714 65.2139 77.0714V44.4641C65.2139 42.8263 66.5404 41.4998 68.1782 41.4998Z" fill="#1B3285"/>
<path d="M77.0711 63.7321V51.8749C77.0711 58.423 71.762 63.7321 65.2139 63.7321V75.5893C71.762 75.5893 77.0711 70.2802 77.0711 63.7321Z" fill="#5492C5"/>
<path d="M65.2135 65.2141H56.3206V60.7677C56.3206 60.1852 55.9812 59.6576 55.4506 59.4175C54.9214 59.1759 54.3004 59.2692 53.8617 59.6516L42.0044 70.0267C41.6843 70.3098 41.499 70.7144 41.499 71.1427C41.499 71.5711 41.6843 71.9772 42.0044 72.2573L53.8617 82.6324C54.1374 82.874 54.4857 83 54.8384 83C55.0459 83 55.2549 82.957 55.4506 82.868C55.9812 82.6279 56.3206 82.1003 56.3206 81.5178V77.0714H65.2135C71.7617 77.0714 77.0708 71.7623 77.0708 65.2141V53.3569C77.0708 59.9051 71.7617 65.2141 65.2135 65.2141Z" fill="#2E47A4"/>
<path d="M41.4995 68.1785V74.1071C41.4995 75.7449 40.173 77.0714 38.5352 77.0714H17.785C11.2368 77.0714 5.92773 71.7624 5.92773 65.2142H38.5352C40.173 65.2142 41.4995 66.5408 41.4995 68.1785Z" fill="#1B3285"/>
<path d="M19.2664 77.0714H31.1237C24.5755 77.0714 19.2664 71.7624 19.2664 65.2142H7.40918C7.40918 71.7624 12.7183 77.0714 19.2664 77.0714Z" fill="#5492C5"/>
<path d="M17.7848 65.2141V56.3212H22.2312C22.8137 56.3212 23.3414 55.9818 23.5815 55.4512C23.8216 54.9221 23.7297 54.3011 23.3473 53.8624L12.9722 42.0051C12.409 41.3619 11.3048 41.3619 10.7416 42.0051L0.366451 53.8624C-0.0159458 54.2996 -0.10784 54.9221 0.13227 55.4512C0.370897 55.9818 0.898545 56.3212 1.48103 56.3212H5.92751V65.2141C5.92751 71.7623 11.2366 77.0714 17.7848 77.0714H29.642C23.0939 77.0714 17.7848 71.7623 17.7848 65.2141Z" fill="#2E47A4"/>
</svg>
