<svg width="71" height="106" viewBox="0 0 71 106" fill="none" xmlns="http://www.w3.org/2000/svg">
<path d="M13.3264 34.5652H57.6749C64.9045 34.5652 72.2678 40.695 70.8151 47.8566L63.9166 81.8646C61.2811 94.8667 53.1788 106 40.0549 106H30.9447C17.824 106 9.71973 94.8688 7.08301 81.8646L0.184452 47.8566C-1.26654 40.695 6.09796 34.5652 13.3264 34.5652Z" fill="#E31D78"/>
<path d="M50.2036 14.0028L44.3756 33.6605C43.4134 36.9068 40.2579 39.1739 36.7028 39.1739C33.1477 39.1739 29.9935 36.9069 29.0304 33.6613L20.7972 5.89754C20.0658 3.43079 21.5813 0.868558 24.1822 0.174432C26.783 -0.519278 29.4845 0.918173 30.2163 3.38534L36.7023 25.2568L40.7836 11.4906C41.515 9.0234 44.2151 7.58595 46.8173 8.27966C49.4194 8.97379 50.935 11.5356 50.2036 14.0028Z" fill="#899D4D"/>
<path d="M70.8191 47.8562L64.0475 81.8644C61.4605 94.8666 53.5073 106 40.6249 106H31.6823C22.2222 106 15.4233 99.9915 11.4521 91.65C33.176 85.5771 49.4113 62.3782 49.7327 34.5652H57.9206C65.0176 34.5648 72.245 40.6946 70.8191 47.8562Z" fill="#C11564"/>
</svg>
