<svg width="73" height="73" viewBox="0 0 73 73" fill="none" xmlns="http://www.w3.org/2000/svg">
<path d="M62.7344 43.3438C62.7344 44.0509 62.7116 44.7581 62.6431 45.4539C62.4291 48.2548 61.7587 51.0019 60.6584 53.5866C58.6459 58.3292 55.282 62.3746 50.986 65.2184C46.69 68.0622 41.652 69.5787 36.5 69.5787C31.348 69.5787 26.31 68.0622 22.014 65.2184C17.718 62.3746 14.3541 58.3292 12.3416 53.5866C11.2413 51.0019 10.5709 48.2548 10.3569 45.4539C10.2884 44.7581 10.2656 44.0509 10.2656 43.3438C10.2672 42.1585 10.3702 40.9755 10.5736 39.8078C13.5164 22.4133 36.5 3.42188 36.5 3.42188C36.5 3.42188 59.4836 22.4133 62.4264 39.8078C62.6298 40.9755 62.7328 42.1585 62.7344 43.3438Z" fill="#87CEE9"/>
<path d="M62.7344 43.3438C62.7344 44.0509 62.7116 44.7581 62.6431 45.4539C62.1699 45.5745 61.6828 45.632 61.1945 45.625C57.0655 45.625 57.0655 42.2031 52.9478 42.2031C48.8302 42.2031 48.8302 45.625 44.7125 45.625C40.5948 45.625 40.6062 42.2031 36.4886 42.2031C32.3709 42.2031 32.3709 45.625 28.2533 45.625C24.1356 45.625 24.147 42.2031 20.0294 42.2031C15.9117 42.2031 15.9117 45.625 11.7941 45.625C11.3095 45.632 10.8262 45.5745 10.3569 45.4539C10.2884 44.7581 10.2656 44.0509 10.2656 43.3438C10.2672 42.1585 10.3702 40.9755 10.5736 39.8078C10.9759 39.884 11.3846 39.9222 11.7941 39.9219C15.9117 39.9219 15.9117 36.5 20.0294 36.5C24.147 36.5 24.147 39.9219 28.2533 39.9219C32.3595 39.9219 32.3709 36.5 36.4886 36.5C40.6062 36.5 40.6063 39.9219 44.7125 39.9219C48.8188 39.9219 48.8302 36.5 52.9478 36.5C57.0655 36.5 57.0655 39.9219 61.1945 39.9219C61.6078 39.9222 62.0202 39.884 62.4264 39.8078C62.6298 40.9755 62.7328 42.1585 62.7344 43.3438Z" fill="#E6F1FD"/>
<path d="M62.6437 45.4539C62.4296 48.2548 61.7593 51.0019 60.659 53.5866C57.0546 53.3014 56.8835 50.1875 52.9484 50.1875C48.8307 50.1875 48.8307 53.6094 44.7131 53.6094C40.5954 53.6094 40.6068 50.1875 36.4891 50.1875C32.3715 50.1875 32.3715 53.6094 28.2538 53.6094C24.1362 53.6094 24.1476 50.1875 20.0299 50.1875C16.1062 50.1875 15.9237 53.3014 12.3421 53.5866C11.2419 51.0019 10.5715 48.2548 10.3574 45.4539C10.8268 45.5745 11.3101 45.632 11.7946 45.625C15.9123 45.625 15.9123 42.2031 20.0299 42.2031C24.1476 42.2031 24.1476 45.625 28.2538 45.625C32.3601 45.625 32.3715 42.2031 36.4891 42.2031C40.6068 42.2031 40.6068 45.625 44.7131 45.625C48.8193 45.625 48.8307 42.2031 52.9484 42.2031C57.066 42.2031 57.066 45.625 61.1951 45.625C61.6834 45.632 62.1705 45.5745 62.6437 45.4539Z" fill="#32B1CC"/>
<path d="M36.5003 66.1563C32.6491 66.1192 28.8696 65.1109 25.5118 63.2247C22.1539 61.3385 19.3264 58.6355 17.291 55.3659L19.2095 54.1341C21.0582 57.0639 23.6063 59.4881 26.6246 61.1885C29.6429 62.8888 33.0366 63.812 36.5003 63.875V66.1563Z" fill="#E6F1FD"/>
<path d="M38.7812 63.875H41.0625V66.1562H38.7812V63.875Z" fill="#E6F1FD"/>
<path d="M37.6406 21.957C37.5672 23.1172 37.0546 24.2058 36.207 25.0015C35.3595 25.7971 34.2406 26.24 33.0781 26.24C31.9156 26.24 30.7968 25.7971 29.9492 25.0015C29.1017 24.2058 28.589 23.1172 28.5156 21.957C28.5156 19.5948 33.0781 14.8281 33.0781 14.8281C33.0781 14.8281 37.6406 19.5948 37.6406 21.957Z" fill="#E6F1FD"/>
<path d="M46.7656 28.6787C46.7656 29.5863 46.4051 30.4566 45.7634 31.0984C45.1217 31.7401 44.2513 32.1006 43.3438 32.1006C42.4362 32.1006 41.5658 31.7401 40.9241 31.0984C40.2824 30.4566 39.9219 29.5863 39.9219 28.6787C39.9219 26.8788 43.3438 22.8125 43.3438 22.8125C43.3438 22.8125 46.7656 26.8788 46.7656 28.6787Z" fill="#E6F1FD"/>
<path d="M53.7489 32.4839C47.082 20.2621 35.8502 10.074 35.7373 9.97248L37.2635 8.27751C37.7357 8.70182 48.8978 18.818 55.7519 31.3911L53.7489 32.4839Z" fill="#E6F1FD"/>
<path d="M22.8125 25.0938H25.0938V27.375H22.8125V25.0938Z" fill="#E6F1FD"/>
<path d="M27.375 29.6562H29.6562V31.9375H27.375V29.6562Z" fill="#E6F1FD"/>
</svg>
