<svg width="38" height="38" viewBox="0 0 38 38" fill="none" xmlns="http://www.w3.org/2000/svg">
<path d="M37.3661 2.53336V20.0292C37.3661 21.0782 36.5151 21.9292 35.4661 21.9292H17.9703C16.9214 21.9292 16.0703 21.0782 16.0703 20.0292V2.53336C16.0703 1.4844 16.9214 0.633362 17.9703 0.633362H35.4661C36.5151 0.633362 37.3661 1.4844 37.3661 2.53336Z" fill="#CBE3FA"/>
<path d="M35.4918 2.53336H34.0305C25.5979 2.53336 18.762 9.36932 18.762 17.8019V21.9292H17.9703C16.921 21.9292 16.0703 21.0785 16.0703 20.0292V2.53336C16.0703 1.48401 16.921 0.633362 17.9703 0.633362C17.9703 0.633362 35.5315 0.634153 35.5639 0.635816C36.782 0.697645 36.7114 2.53336 35.4918 2.53336Z" fill="#EEF7FF"/>
<path d="M26.7587 14.725C28.6825 14.725 30.2421 13.1654 30.2421 11.2416C30.2421 9.31784 28.6825 7.7583 26.7587 7.7583C24.8349 7.7583 23.2754 9.31784 23.2754 11.2416C23.2754 13.1654 24.8349 14.725 26.7587 14.725Z" fill="#FF6D7A"/>
<path d="M24.462 15.6639V35.2402C24.462 36.4151 23.5104 37.3666 22.3356 37.3666H2.75923C1.5844 37.3666 0.632812 36.4151 0.632812 35.2402V15.6639C0.632812 14.4891 1.5844 13.5375 2.75923 13.5375H22.3356C23.5104 13.5375 24.462 14.4891 24.462 15.6639Z" fill="#CBE3FA"/>
<path d="M26.362 21.2958C26.362 21.6456 26.0784 21.9291 25.7286 21.9291H24.462V15.6639C24.462 14.4895 23.5099 13.5375 22.3356 13.5375H16.0703V12.2708C16.0703 11.9211 16.3539 11.6375 16.7036 11.6375C22.6897 11.6375 22.5674 11.6074 23.0994 11.7098C23.2249 11.734 23.3221 11.8328 23.3483 11.958C23.6303 13.307 24.6924 14.3693 26.0414 14.6511C26.1666 14.6772 26.2654 14.7745 26.2895 14.9C26.3869 15.4055 26.362 15.043 26.362 21.2958Z" fill="#B5D5F5"/>
<path d="M18.7938 21.512C20.0181 21.512 21.0105 20.5195 21.0105 19.2953C21.0105 18.071 20.0181 17.0786 18.7938 17.0786C17.5696 17.0786 16.5771 18.071 16.5771 19.2953C16.5771 20.5195 17.5696 21.512 18.7938 21.512Z" fill="#585966"/>
<path d="M18.7938 33.9142C20.0181 33.9142 21.0105 32.9218 21.0105 31.6976C21.0105 30.4733 20.0181 29.4809 18.7938 29.4809C17.5696 29.4809 16.5771 30.4733 16.5771 31.6976C16.5771 32.9218 17.5696 33.9142 18.7938 33.9142Z" fill="#585966"/>
<path d="M12.5926 27.7131C13.8169 27.7131 14.8093 26.7206 14.8093 25.4964C14.8093 24.2722 13.8169 23.2797 12.5926 23.2797C11.3684 23.2797 10.376 24.2722 10.376 25.4964C10.376 26.7206 11.3684 27.7131 12.5926 27.7131Z" fill="#585966"/>
<path d="M6.39147 33.9142C7.6157 33.9142 8.60814 32.9218 8.60814 31.6976C8.60814 30.4733 7.6157 29.4809 6.39147 29.4809C5.16724 29.4809 4.1748 30.4733 4.1748 31.6976C4.1748 32.9218 5.16724 33.9142 6.39147 33.9142Z" fill="#585966"/>
<path d="M22.3816 15.9125H19.2945C10.7368 15.9125 3.79948 22.8498 3.79948 31.4074V36.3264C3.79948 36.9009 3.33374 37.3666 2.75923 37.3666C1.58487 37.3666 0.632812 36.4146 0.632812 35.2402V15.6639C0.632812 14.4895 1.58487 13.5375 2.75923 13.5375H22.3356C24.0372 13.5375 23.9173 15.9125 22.3816 15.9125Z" fill="#EEF7FF"/>
<path d="M19.1327 17.1044C19.5976 17.1759 19.6558 17.8327 19.2095 17.9809C18.3444 18.268 17.6852 19.0795 17.6852 20.087C17.6852 20.6046 17.0455 20.7361 16.8286 20.322C15.9936 18.7276 17.3319 16.8278 19.1327 17.1044Z" fill="#42434D"/>
<path d="M19.1327 29.5067C19.5976 29.5781 19.6558 30.2349 19.2095 30.3831C18.3444 30.6703 17.6852 31.4817 17.6852 32.4893C17.6852 33.0069 17.0455 33.1383 16.8286 32.7242C15.9936 31.1298 17.3319 29.23 19.1327 29.5067Z" fill="#42434D"/>
<path d="M12.9315 23.3056C13.3964 23.377 13.4547 24.0338 13.0083 24.182C12.1432 24.4692 11.4841 25.2806 11.4841 26.2882C11.4841 26.8058 10.8443 26.9372 10.6274 26.5231C9.79243 24.9287 11.1307 23.0289 12.9315 23.3056Z" fill="#42434D"/>
<path d="M6.73037 29.5067C7.19523 29.5781 7.2535 30.2349 6.80716 30.3831C5.94202 30.6703 5.28288 31.4817 5.28288 32.4893C5.28288 33.0069 4.64314 33.1383 4.42622 32.7242C3.59125 31.1298 4.92964 29.23 6.73037 29.5067Z" fill="#42434D"/>
<path d="M24.9408 12.7933C25.0753 13.3978 24.267 13.7541 23.9099 13.2482C23.4784 12.6368 23.2388 11.8802 23.2787 11.066C23.3668 9.2736 24.8387 7.81534 26.6487 7.76009C27.2798 7.74077 27.4709 8.60028 26.8968 8.86304C25.401 9.54743 24.5813 11.1776 24.9408 12.7933Z" fill="#FE4F60"/>
<path d="M6.39147 21.512C7.6157 21.512 8.60814 20.5195 8.60814 19.2953C8.60814 18.071 7.6157 17.0786 6.39147 17.0786C5.16724 17.0786 4.1748 18.071 4.1748 19.2953C4.1748 20.5195 5.16724 21.512 6.39147 21.512Z" fill="#6E6F80"/>
<path d="M6.73037 17.1044C7.19523 17.1759 7.2535 17.8327 6.80716 17.9809C5.94202 18.268 5.28288 19.0795 5.28288 20.087C5.28288 20.6046 4.64314 20.7361 4.42622 20.322C3.59125 18.7276 4.92964 16.8278 6.73037 17.1044Z" fill="#585966"/>
<path d="M11.9589 23.2798C11.9589 23.6295 12.2424 23.9131 12.5922 23.9131C13.4652 23.9131 14.1755 24.6234 14.1755 25.4964C14.1755 26.3695 13.4652 27.0798 12.5922 27.0798C11.7191 27.0798 11.0089 26.3695 11.0089 25.4964C11.0089 25.1467 10.7253 24.8631 10.3755 24.8631C10.0258 24.8631 9.74219 25.1467 9.74219 25.4964C9.74219 27.068 11.0206 28.3464 12.5922 28.3464C14.1637 28.3464 15.4422 27.068 15.4422 25.4964C15.4422 23.9249 14.1637 22.6464 12.5922 22.6464C12.2423 22.6464 11.9589 22.93 11.9589 23.2798Z" fill="black"/>
<path d="M18.7934 17.7121C19.6664 17.7121 20.3767 18.4224 20.3767 19.2954C20.3767 19.6452 20.6603 19.9288 21.01 19.9288C21.3598 19.9288 21.6434 19.6452 21.6434 19.2954C21.6434 17.7239 20.3649 16.4454 18.7934 16.4454C17.2218 16.4454 15.9434 17.7239 15.9434 19.2954C15.9434 20.867 17.2218 22.1454 18.7934 22.1454C19.1431 22.1454 19.4267 21.8619 19.4267 21.5121C19.4267 21.1623 19.1431 20.8788 18.7934 20.8788C17.9203 20.8788 17.21 20.1685 17.21 19.2954C17.21 18.4224 17.9203 17.7121 18.7934 17.7121Z" fill="black"/>
<path d="M8.60768 18.6621C8.25792 18.6621 7.97435 18.9457 7.97435 19.2954C7.97435 20.1685 7.26407 20.8788 6.39102 20.8788C5.51797 20.8788 4.80768 20.1685 4.80768 19.2954C4.80768 18.4224 5.51797 17.7121 6.39102 17.7121C6.74077 17.7121 7.02435 17.4285 7.02435 17.0788C7.02435 16.729 6.74077 16.4454 6.39102 16.4454C4.81948 16.4454 3.54102 17.7239 3.54102 19.2954C3.54102 20.867 4.81948 22.1454 6.39102 22.1454C7.96255 22.1454 9.24102 20.867 9.24102 19.2954C9.24102 18.9457 8.95752 18.6621 8.60768 18.6621Z" fill="black"/>
<path d="M18.7934 34.5473C20.3649 34.5473 21.6434 33.2688 21.6434 31.6973C21.6434 31.3475 21.3598 31.064 21.01 31.064C20.6603 31.064 20.3767 31.3475 20.3767 31.6973C20.3767 32.5703 19.6664 33.2806 18.7934 33.2806C17.9203 33.2806 17.21 32.5703 17.21 31.6973C17.21 30.8242 17.9203 30.114 18.7934 30.114C19.1431 30.114 19.4267 29.8304 19.4267 29.4806C19.4267 29.1309 19.1431 28.8473 18.7934 28.8473C17.2218 28.8473 15.9434 30.1258 15.9434 31.6973C15.9434 33.2688 17.2218 34.5473 18.7934 34.5473Z" fill="black"/>
<path d="M6.39102 33.2806C6.04126 33.2806 5.75768 33.5642 5.75768 33.914C5.75768 34.2637 6.04126 34.5473 6.39102 34.5473C7.96255 34.5473 9.24102 33.2688 9.24102 31.6973C9.24102 30.1258 7.96255 28.8473 6.39102 28.8473C4.81948 28.8473 3.54102 30.1258 3.54102 31.6973C3.54102 32.047 3.82459 32.3306 4.17435 32.3306C4.52411 32.3306 4.80768 32.047 4.80768 31.6973C4.80768 30.8242 5.51797 30.114 6.39102 30.114C7.26407 30.114 7.97435 30.8242 7.97435 31.6973C7.97435 32.5703 7.26407 33.2806 6.39102 33.2806Z" fill="black"/>
<path d="M35.4667 0H17.9708C16.5739 0 15.4375 1.13644 15.4375 2.53333V13.5375C15.4375 13.8873 15.7211 14.1708 16.0708 14.1708H22.3365C23.1595 14.1708 23.8292 14.8405 23.8292 15.6635V35.2406C23.8292 36.0636 23.1596 36.7333 22.3365 36.7333H2.75935C1.93626 36.7333 1.26667 36.0637 1.26667 35.2406V15.6635C1.26667 14.8405 1.93626 14.1708 2.75935 14.1708H11.52C11.8698 14.1708 12.1534 13.8873 12.1534 13.5375C12.1534 13.1877 11.8698 12.9042 11.52 12.9042H2.75935C1.23785 12.9042 0 14.142 0 15.6635V35.2406C0 36.7621 1.23785 38 2.75935 38H22.3365C23.858 38 25.0958 36.7621 25.0958 35.2406V15.6635C25.0958 14.1419 23.858 12.9042 22.3365 12.9042H16.7042V2.53333C16.7042 1.83493 17.2724 1.26667 17.9708 1.26667H35.4667C36.1651 1.26667 36.7333 1.83493 36.7333 2.53333V20.0292C36.7333 20.7276 36.1651 21.2958 35.4667 21.2958H27.3738C27.024 21.2958 26.7404 21.5794 26.7404 21.9292C26.7404 22.2789 27.024 22.5625 27.3738 22.5625H35.4667C36.8636 22.5625 38 21.4261 38 20.0292V2.53333C38 1.13644 36.8636 0 35.4667 0Z" fill="black"/>
<path d="M30.875 11.2417C30.875 8.97172 29.0283 7.125 26.7583 7.125C24.6044 7.125 22.8365 8.77895 22.6566 10.8879C22.6269 11.2364 22.8853 11.5431 23.2339 11.5727C23.5822 11.6041 23.889 11.344 23.9188 10.9955C24.0433 9.53547 25.2906 8.39167 26.7583 8.39167C28.3299 8.39167 29.6083 9.67013 29.6083 11.2417C29.6083 12.9455 28.1103 14.2874 26.393 14.0685C26.0457 14.0241 25.7288 14.2696 25.6845 14.6165C25.6402 14.9635 25.8856 15.2807 26.2325 15.325C28.6932 15.6393 30.875 13.7194 30.875 11.2417Z" fill="black"/>
</svg>
