<svg width="40" height="40" viewBox="0 0 40 40" fill="none" xmlns="http://www.w3.org/2000/svg">
<path d="M0 20C0 8.95105 8.95105 0 20 0C31.049 0 40 8.95105 40 20C40 31.049 31.049 40 20 40C8.95105 39.9767 0 31.0256 0 20Z" fill="white"/>
<path d="M28.9978 11.8649C27.2962 11.0956 25.5246 10.5362 23.6831 10.2332C23.45 10.6527 23.1936 11.1889 23.0071 11.6318C21.0491 11.3287 19.0677 11.3287 17.1097 11.6318C16.8999 11.1422 16.6668 10.676 16.4104 10.2332C14.5689 10.5362 12.774 11.0956 11.0957 11.8882C7.73908 16.8998 6.82999 21.7716 7.27288 26.5968C9.25423 28.0653 11.4454 29.1842 13.7997 29.8835C14.3358 29.1609 14.802 28.415 15.1983 27.6224C14.4291 27.3427 13.7064 26.9931 13.0071 26.5735C13.1936 26.4336 13.3568 26.2938 13.5433 26.1539C17.6692 28.1119 22.471 28.1119 26.5969 26.1539C26.7834 26.2938 26.9465 26.4336 27.133 26.5735C26.4337 26.9931 25.6878 27.3427 24.9186 27.6224C25.3148 28.415 25.781 29.1609 26.3172 29.8835C28.6715 29.1609 30.8859 28.0653 32.844 26.5968C33.3568 21.0024 31.9116 16.1539 28.9978 11.8649ZM15.7577 23.6131C14.4757 23.6131 13.45 22.4476 13.45 21.0257C13.45 19.6038 14.4757 18.415 15.7577 18.415C17.0631 18.415 18.0887 19.5805 18.0887 21.0257C18.0654 22.4476 17.0631 23.6131 15.7577 23.6131ZM24.3358 23.6131C23.0538 23.6131 22.0281 22.4476 22.0281 21.0257C22.0281 19.6038 23.0538 18.415 24.3358 18.415C25.6412 18.415 26.6668 19.5805 26.6435 21.0257C26.6202 22.4709 25.6179 23.6131 24.3358 23.6131Z" fill="#040813"/>
</svg>
