<svg width="41" height="41" viewBox="0 0 41 41" fill="none" xmlns="http://www.w3.org/2000/svg">
<path d="M8.51989 19.4874C8.51993 19.2581 8.56517 19.0311 8.65302 18.8194C8.74087 18.6077 8.86959 18.4155 9.03179 18.2538C9.194 18.092 9.38649 17.964 9.59821 17.877C9.80994 17.79 10.0367 17.7458 10.2656 17.7469L13.1597 17.7564C13.6212 17.7564 14.0637 17.94 14.39 18.2669C14.7163 18.5938 14.8996 19.0372 14.8996 19.4996V30.4645C15.2256 30.3677 15.6428 30.2645 16.1018 30.1562C16.4199 30.0812 16.7033 29.9008 16.9062 29.6442C17.1091 29.3876 17.2195 29.0699 17.2196 28.7426V15.1424C17.2196 14.68 17.4029 14.2366 17.7292 13.9096C18.0554 13.5827 18.498 13.3989 18.9595 13.3988H21.8624C22.3239 13.3989 22.7665 13.5827 23.0928 13.9096C23.419 14.2366 23.6023 14.68 23.6023 15.1424V27.7655C23.6023 27.7655 24.3286 27.4711 25.0356 27.1719C25.2983 27.0606 25.5225 26.8743 25.6802 26.6361C25.8378 26.398 25.922 26.1186 25.9223 25.8328V10.7842C25.9223 10.3219 26.1055 9.87857 26.4318 9.55166C26.758 9.22476 27.2005 9.04106 27.6619 9.04097H30.5617C31.0229 9.04142 31.465 9.22528 31.791 9.55214C32.1169 9.87901 32.3 10.3221 32.3 10.7842V23.1762C34.8141 21.3507 37.362 19.1551 39.384 16.515C39.6774 16.1318 39.8715 15.6818 39.9491 15.2051C40.0266 14.7285 39.9852 14.24 39.8285 13.7833C38.8926 11.0854 37.4048 8.61303 35.4603 6.52431C33.5159 4.43559 31.1577 2.77655 28.5366 1.65334C25.9154 0.530135 23.0891 -0.0324978 20.2385 0.00144962C17.3879 0.035397 14.5758 0.665175 11.982 1.85048C9.38829 3.03579 7.07009 4.75053 5.17577 6.88496C3.28144 9.01939 1.85271 11.5265 0.981007 14.2459C0.1093 16.9653 -0.186187 19.8371 0.113452 22.6774C0.413091 25.5178 1.30126 28.2642 2.72112 30.7409C2.96849 31.1682 3.33243 31.5159 3.77019 31.7431C4.20794 31.9703 4.70131 32.0676 5.19236 32.0236C5.74092 31.9752 6.42393 31.9068 7.23596 31.8114C7.58938 31.7711 7.91566 31.602 8.15267 31.3363C8.38968 31.0705 8.52087 30.7267 8.52124 30.3704V19.4874" fill="white"/>
<path d="M8.45808 37.0722C11.5148 39.3001 15.127 40.6373 18.8952 40.936C22.6634 41.2347 26.4407 40.4832 29.809 38.7647C33.1774 37.0461 36.0055 34.4274 37.9806 31.1984C39.9557 27.9694 41.0007 24.2559 41 20.4688C41 19.995 40.978 19.5287 40.9466 19.0637C33.4603 30.2502 19.6374 35.4799 8.45808 37.0722Z" fill="white"/>
</svg>
