<svg width="557" height="54" viewBox="0 0 557 54" fill="none" xmlns="http://www.w3.org/2000/svg">
<path d="M9.62004 0C11.7364 0.380282 12.8908 1.14085 12.8908 1.90141V2.28169C12.8908 2.66197 12.506 3.23239 11.9288 3.80282C12.8908 6.84507 13.468 8.55634 13.468 9.3169C13.468 9.50704 13.0832 10.0775 12.506 11.2183C12.506 11.2183 12.3136 11.9789 12.3136 12.9296C12.3136 14.6408 13.8528 15.7817 17.1237 16.162H20.9717C21.1641 16.162 21.7413 14.831 22.7033 11.9789V11.7887C22.1261 9.69718 21.7413 8.3662 21.7413 8.17606C21.7413 7.41549 22.3185 6.27465 23.4729 4.75352C23.6653 3.99296 23.6653 3.61268 23.6653 3.61268C23.6653 3.04225 23.4729 2.66197 23.4729 2.28169C23.4729 1.90141 23.8577 1.71127 24.4349 1.71127H33.4777C34.2473 1.71127 34.6321 2.28169 34.6321 3.23239C34.6321 7.22535 35.2093 9.88732 36.5561 11.0282L36.7485 11.5986V11.7887L35.4017 14.6408C35.2093 15.5915 35.2093 16.5423 35.2093 17.493V18.4437C35.2093 22.2465 35.7865 26.6197 37.1333 31.1831C37.1333 31.7535 37.3257 32.3239 37.3257 33.0845V34.0352C37.3257 35.9366 36.9409 37.838 36.3637 39.9296L36.1713 40.5C36.1713 40.8803 36.3637 41.0704 36.3637 41.0704C36.3637 41.6408 35.9789 42.2113 35.2093 42.7817L33.8625 42.5916C33.2853 42.5916 33.0929 43.162 32.9005 44.493C32.7081 45.0634 32.3233 45.2535 31.9385 45.2535H31.7461C30.9765 45.2535 30.2069 44.493 29.8221 42.7817C29.8221 42.7817 29.6297 42.7817 29.4373 42.5916C29.0525 42.7817 28.2829 43.3521 27.3209 44.3028L26.7437 44.493C25.7817 44.493 24.8197 43.9225 23.6653 42.5916C23.2805 42.0211 23.0881 41.4507 23.0881 41.2606V40.8803C23.6653 38.9789 23.8577 37.6479 23.8577 36.507C23.8577 36.1268 23.8577 34.9859 23.6653 33.2747L23.8577 32.1338C23.8577 31.3732 23.6653 30.4225 23.6653 29.2817V28.7113L23.4729 28.1408C23.2805 28.1408 23.0881 28.5211 23.0881 28.7113V28.9014C23.0881 29.2817 23.0881 29.662 23.2805 30.0423C23.0881 30.6127 22.8957 30.993 22.7033 30.993C22.1261 30.993 21.3565 30.2324 20.7793 28.5211H20.9717H20.3945C20.2021 30.2324 20.2021 31.3732 20.2021 32.1338V32.5141C20.0097 33.4648 19.8173 33.8451 19.2401 33.8451C18.2781 33.8451 17.8933 32.8944 17.8933 30.993C17.8933 27.5704 17.5085 26.0493 16.9313 26.0493C16.1617 25.2887 15.5845 24.9085 15.1997 24.9085C13.6604 25.4789 12.8908 26.2394 12.8908 27.3803C12.8908 28.7113 13.0832 32.8944 13.2756 40.3099C12.3136 42.0211 11.3516 42.9718 10.1972 42.9718H9.81244C8.65803 42.9718 7.31123 42.5916 5.96442 41.831C5.96442 42.2113 5.57962 42.5916 4.61762 43.162C2.88601 43.162 1.53921 42.2113 0.577202 40.1197V38.4085L0 34.4155C0.384801 33.4648 0.577202 32.5141 0.577202 31.7535C0.577202 31.3732 0.384801 30.0423 0 27.9507V27.7606L0.577202 26.0493C0.577202 24.7183 0.384801 23.7676 0.384801 22.8169C0.769603 19.2042 0.769603 15.9718 0.769603 13.5C0.769603 12.7394 0.577202 8.74648 0.384801 1.52113L0.769603 1.14085H1.53921C2.50121 1.14085 3.84801 1.14085 5.38722 1.33099L9.62004 0Z" fill="#F56200"/>
<path d="M55.6039 1.71124H56.1811C56.5659 1.71124 57.3355 1.90138 58.4899 2.09152C64.2619 2.09152 68.1099 1.90138 69.6491 1.90138C70.0339 2.09152 71.1883 6.27462 73.6896 14.4507C73.882 14.831 74.844 18.2535 76.9604 24.7183C78.4996 25.2887 79.2692 26.6197 79.2692 28.7112C79.2692 29.0915 79.2692 29.662 79.4616 30.4225C79.4616 30.8028 79.2692 31.1831 79.2692 31.5634C79.2692 32.1338 80.4236 35.9366 82.54 42.7817V43.162C82.54 44.4929 82.1552 45.2535 81.1932 45.2535L80.616 45.4436C80.4236 45.4436 79.654 44.6831 78.4996 43.162C77.9224 42.7817 77.1528 42.7817 76.3832 42.7817C76.3832 42.7817 75.6136 42.9718 74.4592 43.3521H73.882V44.3028C73.882 45.0634 73.1124 46.0141 71.7655 46.9648H71.3807C70.6111 46.9648 70.0339 46.0141 69.6491 43.9225V43.3521C69.6491 42.9718 69.6491 42.2112 69.8415 40.8803C69.8415 40.5 69.4567 39.5493 68.8795 38.4084V36.6972C68.8795 36.1267 68.3023 35.3662 67.1479 34.4155C65.4163 34.6056 64.6467 34.9859 64.6467 35.5563C64.0695 36.1267 63.2999 36.6972 62.3379 36.8873C61.7607 36.8873 60.9911 36.1267 59.8367 34.7958L59.6443 34.6056C58.1051 34.6056 57.1431 35.3662 57.1431 36.8873C57.1431 37.838 56.7583 38.2183 55.7963 38.2183C55.0267 38.2183 54.0647 39.9296 53.2951 43.162C53.2951 44.4929 52.9103 45.2535 52.1407 45.2535H51.5635C50.6015 45.2535 50.0243 44.3028 49.6395 42.5915C48.2927 43.5422 47.3307 43.9225 46.9459 43.9225H46.7535C46.1763 43.9225 45.2143 43.3521 44.0599 42.0211H43.8675C43.6751 42.0211 43.2903 42.9718 42.7131 44.6831L42.1358 45.0634C41.5586 45.0634 41.1738 44.4929 40.9814 43.3521V41.4507C41.9434 39.3591 45.5991 29.4718 51.9483 11.7887C52.1407 11.5986 52.3331 11.2183 52.3331 10.6479V9.50702C52.3331 7.79575 52.7179 5.7042 53.6799 3.23237C53.6799 2.28167 54.4495 1.71124 55.6039 1.71124ZM61.1835 13.1197C58.8747 20.7253 57.7203 24.7183 57.7203 25.4789H60.6063C61.1835 25.4789 61.7607 25.4789 61.9531 25.2887C61.9531 23.007 62.1455 21.2958 62.1455 20.1549V19.5845C62.1455 17.4929 61.9531 15.9718 61.3759 15.4014V15.2112C61.5683 14.0704 61.5683 13.5 61.5683 13.3098L61.3759 13.1197H61.1835ZM63.6847 17.8732V19.0141C63.6847 19.7746 63.6847 21.1056 63.4923 23.3873C63.2999 23.7676 63.1075 24.1479 63.1075 24.5281V25.4789C63.6847 25.4789 64.0695 25.669 64.2619 25.669C65.2239 25.669 65.6087 25.4789 65.6087 25.2887C64.6467 20.345 64.0695 17.8732 63.6847 17.8732Z" fill="#F56200"/>
<path d="M87.3499 1.71124H98.5091C98.7015 1.71124 98.7015 1.71124 98.7015 1.90138C98.7015 10.2676 98.5091 15.9718 98.5091 19.3943C98.7015 23.7676 98.7015 26.2394 98.7015 27.1901C98.7015 29.0915 100.048 30.8028 102.742 32.1338C104.281 31.1831 105.82 30.8028 107.552 30.8028C108.129 30.9929 108.706 31.3732 109.284 31.9436C109.861 32.8943 110.246 33.4648 110.63 33.845H114.286C114.478 33.845 114.478 33.8451 114.478 34.0352V42.4014C114.478 43.5422 113.709 44.4929 111.977 44.8732C111.592 44.8732 111.592 45.2535 111.592 45.8239V47.5352C111.4 49.0563 110.823 49.8169 110.053 49.8169H109.861C108.899 49.6267 108.322 48.676 108.322 47.1549V45.2535C108.322 44.8732 108.129 44.6831 107.937 44.4929H107.744L104.666 45.8239L103.512 46.0141C102.55 46.0141 101.395 45.4436 100.048 44.1127H99.4711C98.1243 44.3028 97.5471 44.4929 97.5471 45.0634C97.1623 46.3943 96.7775 46.9648 96.3927 46.9648C94.6611 46.5845 93.6991 45.6338 93.6991 44.4929V44.3028C92.5447 43.9225 91.9675 43.7324 91.7751 43.7324C90.4283 44.4929 89.6587 44.8732 89.4663 44.8732C87.7347 44.8732 86.1955 43.9225 85.0411 42.2113C85.6183 38.5986 86.0031 36.3169 86.0031 35.9366C85.6183 34.9859 85.6183 33.8451 85.4259 32.1338C85.0411 31.7535 84.8486 31.1831 84.8486 30.6127C84.8486 30.2324 85.0411 28.9014 85.4259 26.8098V26.6197C85.4259 26.0493 85.2335 24.9084 84.6562 23.1972V22.8169C85.0411 21.4859 85.2335 20.5352 85.2335 20.1549V19.9648L84.8486 18.0634L86.0031 14.831C86.0031 14.2605 86.1955 13.8803 86.1955 13.6901C86.1955 13.1197 86.1955 12.169 86.0031 10.838C86.1955 7.60561 86.3879 5.7042 86.9651 5.13378C86.9651 4.94364 87.1575 4.7535 87.1575 4.56336V2.47181C87.1575 1.90138 87.3499 1.71124 87.3499 1.71124Z" fill="#F56200"/>
<path d="M119.865 1.71124H131.025C131.217 1.71124 131.217 1.71124 131.217 1.90138C131.217 10.2676 131.025 15.9718 131.025 19.3943C131.217 23.7676 131.217 26.2394 131.217 27.1901C131.217 29.0915 132.564 30.8028 135.258 32.1338C136.797 31.1831 138.336 30.8028 140.068 30.8028C140.645 30.9929 141.222 31.3732 141.799 31.9436C142.376 32.8943 142.761 33.4648 143.146 33.845H146.802C146.994 33.845 146.994 33.8451 146.994 34.0352V42.4014C146.994 43.5422 146.224 44.4929 144.493 44.8732C144.108 44.8732 144.108 45.2535 144.108 45.8239V47.5352C143.916 49.0563 143.338 49.8169 142.569 49.8169H142.376C141.414 49.6267 140.837 48.676 140.837 47.1549V45.2535C140.837 44.8732 140.645 44.6831 140.452 44.4929H140.26L137.182 45.8239L136.027 46.0141C135.065 46.0141 133.911 45.4436 132.564 44.1127H131.987C130.64 44.3028 130.063 44.4929 130.063 45.0634C129.678 46.3943 129.293 46.9648 128.908 46.9648C127.177 46.5845 126.215 45.6338 126.215 44.4929V44.3028C125.06 43.9225 124.483 43.7324 124.291 43.7324C122.944 44.4929 122.174 44.8732 121.982 44.8732C120.25 44.8732 118.711 43.9225 117.557 42.2113C118.134 38.5986 118.519 36.3169 118.519 35.9366C118.134 34.9859 118.134 33.8451 117.941 32.1338C117.557 31.7535 117.364 31.1831 117.364 30.6127C117.364 30.2324 117.557 28.9014 117.941 26.8098V26.6197C117.941 26.0493 117.749 24.9084 117.172 23.1972V22.8169C117.557 21.4859 117.749 20.5352 117.749 20.1549V19.9648L117.364 18.0634L118.519 14.831C118.519 14.2605 118.711 13.8803 118.711 13.6901C118.711 13.1197 118.711 12.169 118.519 10.838C118.711 7.60561 118.903 5.7042 119.481 5.13378C119.481 4.94364 119.673 4.7535 119.673 4.56336V2.47181C119.673 1.90138 119.865 1.71124 119.865 1.71124Z" fill="#F56200"/>
<path d="M170.274 2.09155H172.198C175.469 2.09155 178.74 2.85212 182.588 4.56338C183.742 4.56338 184.897 5.32395 186.436 6.84507C186.628 7.79578 187.398 9.12676 189.13 10.6479C189.13 10.6479 189.322 11.2183 189.514 12.3592C190.092 13.3099 190.861 15.7817 191.631 19.5845C192.4 19.7747 192.785 20.9155 192.785 22.6268C193.362 24.338 193.555 25.4789 193.555 25.8592V26.6197C193.555 27.3803 192.978 28.331 191.631 29.4718C191.246 30.0423 190.861 32.5141 190.476 36.507C190.476 37.838 190.092 39.169 189.514 40.6901C189.514 42.2113 189.13 42.9718 188.36 42.9718C187.975 42.7817 187.398 42.2113 186.821 41.2606V40.8803L187.013 39.7394H186.628L185.474 41.6409C185.474 41.831 184.127 42.7817 181.626 44.6831C180.664 45.824 179.894 46.3944 179.317 46.3944H179.125C178.74 46.3944 177.97 46.0141 177.008 45.2535C176.816 45.2535 176.624 45.0634 176.431 45.0634C175.854 45.0634 175.469 45.4437 175.277 46.3944C174.7 46.7747 174.315 47.1549 174.315 47.7254C174.122 50.1972 173.93 51.338 173.16 51.338H172.198C171.044 51.338 170.467 50.007 170.467 47.3451C170.467 46.5845 170.274 46.0141 170.274 45.2535H169.312C168.35 46.5845 167.581 47.1549 166.811 47.1549C165.657 47.1549 164.118 46.2042 162.386 44.1127L161.809 42.7817L160.847 44.493C160.27 44.8732 159.885 45.0634 159.308 45.0634H159.115C157.961 45.0634 156.999 43.9225 156.037 41.831C156.037 39.3592 155.267 37.6479 153.728 37.0775C151.804 33.2747 151.034 31.1831 151.034 30.8028C151.034 30.2324 151.227 29.8521 151.227 29.662V29.2817C151.227 29.0916 150.842 28.1409 150.072 26.4296C149.88 26.0493 149.88 25.669 149.88 25.2887V24.7183C149.88 23.7676 150.265 22.2465 151.227 20.3451C151.227 16.3521 152.766 12.169 155.652 8.17606C159.115 4.1831 164.118 2.09155 170.274 2.09155ZM165.849 14.0704C165.08 14.831 164.118 17.1127 163.348 20.9155L163.156 22.4366C163.156 28.7113 164.695 32.7042 167.581 34.2254V34.0352C167.388 31.9437 167.388 30.6127 167.388 30.0423C167.388 28.7113 167.388 27.7606 167.581 27.3803C167.581 25.669 167.388 23.9578 167.388 22.4366V18.6338C167.388 15.5916 167.004 14.0704 166.426 14.0704C166.426 14.2606 166.234 14.0704 165.849 14.0704ZM169.505 19.3944C169.505 19.7747 169.505 20.7254 169.697 22.0563C169.697 23.1972 169.312 25.0986 168.928 27.5704C168.928 32.5141 169.12 34.9859 169.312 34.9859C169.89 35.1761 170.852 35.1761 172.006 35.1761H172.391C175.854 35.1761 177.97 33.4648 178.932 29.8521V29.662C178.932 23.1972 178.355 18.8239 177.393 16.9225C177.393 16.3521 177.201 15.9718 176.816 15.9718C176.431 16.3521 176.046 16.3521 175.662 16.3521C173.93 15.7817 173.16 15.0211 173.16 14.0704C172.583 13.3099 172.198 12.9296 172.198 12.9296H171.236C170.659 12.9296 170.274 13.5 170.274 14.6409C169.89 16.5423 169.505 18.0634 169.505 19.3944Z" fill="#F56200"/>
<path d="M254.161 1.90138C254.354 1.90138 254.354 2.09152 254.546 2.28167V2.47181C252.622 10.6479 251.66 15.5915 251.467 17.1127V19.0141C251.467 19.2042 251.66 19.7746 251.852 20.7253V20.9155C251.852 22.4366 251.275 23.7676 249.928 24.7183C249.543 25.2887 249.351 26.2394 249.351 27.1901C249.736 28.1408 249.928 28.9014 249.928 29.2817C249.736 31.3732 249.351 32.5141 248.966 32.5141C247.619 34.4155 246.85 35.7465 246.657 36.6972V36.8873C246.85 40.1197 247.042 42.2113 247.042 43.3521C247.042 46.7746 246.657 48.2958 245.888 48.2958C245.503 51.5282 245.118 53.4296 244.926 53.8098L244.733 54H244.349C243.579 54 243.194 53.2394 243.194 51.5282C242.809 50.9577 242.425 49.0563 241.847 46.0141H241.655C241.27 46.0141 241.078 47.1549 240.885 49.2465L240.693 49.4366H240.308C239.731 49.4366 239.154 48.8662 238.384 47.5352C238.192 46.7746 238.192 46.3943 237.999 46.3943H236.653C235.691 47.1549 234.921 48.4859 234.344 50.3873L233.959 50.7676H233.574C231.843 50.7676 231.073 48.8662 231.073 45.2535C230.111 44.4929 229.534 43.7324 229.534 42.9718C229.341 40.3098 228.957 38.9789 228.572 38.9789C227.995 38.9789 227.61 37.838 227.61 35.3662V31.7535C227.61 31.3732 227.033 29.2817 226.071 25.8591C226.071 25.669 225.686 25.0986 225.109 24.1479H224.916C224.531 24.1479 223.762 27 222.8 32.5141C222.8 32.8943 222.8 33.4648 222.992 34.0352C222.607 36.6972 222.415 38.5986 222.415 39.7394L223.185 44.3028C222.8 45.4436 222.223 46.0141 221.453 46.0141C221.261 46.0141 220.876 46.2042 220.299 46.2042H220.106V47.5352C219.914 49.6267 219.337 50.7676 218.375 50.7676H217.99C216.258 50.1972 215.296 49.4366 215.296 48.1056C215.104 48.1056 214.527 47.3451 213.18 46.0141C212.795 45.6338 212.41 45.6338 212.218 45.6338C211.641 46.3943 210.679 46.7746 209.524 46.7746C209.524 46.7746 209.332 46.9648 209.139 46.9648H208.562C207.408 46.9648 206.253 46.2042 204.714 44.4929C204.522 44.1127 204.522 43.7324 204.522 43.5422V43.3521C204.522 43.162 204.714 42.4014 205.099 41.4507V41.2605C205.099 40.6901 203.752 35.3662 201.059 25.2887H200.866C200.097 25.669 199.712 27 199.712 29.2817C199.327 30.8028 199.135 31.7535 198.942 31.7535H198.557C197.98 31.7535 197.595 29.8521 197.403 25.8591L197.595 24.9084C197.211 24.1479 197.211 23.7676 197.211 23.5774V22.8169C196.826 18.6338 196.826 15.7817 196.826 14.6408C196.441 13.8803 196.249 11.9788 195.864 8.74645V7.98589C195.864 7.79575 196.056 7.79575 196.249 7.79575C196.249 6.27462 196.249 5.32392 196.249 4.94364C196.249 4.94364 196.249 4.7535 196.441 4.56336C196.249 3.80279 196.056 3.04223 196.056 2.66195C196.056 2.47181 196.441 2.28167 196.633 2.28167H206.638C207.023 2.28167 207.408 4.37322 208.177 8.36617L212.025 24.9084C212.41 25.669 212.987 26.0493 213.372 26.6197C214.334 26.6197 214.911 25.8591 215.104 24.1479C215.681 21.4859 216.066 19.9648 216.066 19.3943V18.8239C216.066 17.6831 216.066 15.9718 215.873 13.6901C215.873 13.1197 216.643 10.838 218.182 6.84505C219.529 3.80279 220.106 2.09152 220.491 2.09152C220.683 2.09152 220.683 1.90138 220.876 1.90138H224.339C225.686 1.90138 227.61 1.90138 229.919 1.71124C230.496 1.71124 230.881 2.47181 231.073 3.80279C232.227 9.12674 233.189 11.9789 233.574 11.9789C233.574 12.169 234.344 12.5493 235.883 13.3098C236.268 13.6901 236.268 14.2605 236.268 14.4507C235.691 15.7817 235.306 16.9225 235.306 17.6831C235.306 21.2958 235.691 24.338 236.653 27.1901H237.037C237.615 27.1901 238.192 26.2394 238.384 24.5281C238.769 23.7676 239.346 21.1056 240.116 16.5422V16.7324C240.116 16.3521 239.923 15.4014 239.731 13.6901C240.693 10.838 241.078 8.9366 241.078 8.17603C242.04 7.79575 242.425 6.65491 242.425 5.13378C242.809 3.04223 243.194 1.90138 243.579 1.90138H254.161Z" fill="#F56200"/>
<path d="M260.382 0.771423H260.767C260.959 0.771423 261.536 1.1517 262.498 1.91227C262.691 1.91227 263.076 2.10241 263.653 2.10241C265.192 2.10241 266.154 1.91227 266.539 1.91227C267.501 1.91227 268.271 2.10241 268.463 2.10241C268.655 2.10241 269.617 1.72213 270.964 0.961564H271.157C274.043 1.15171 275.582 1.53199 275.582 1.91227C275.774 2.10241 276.159 2.10241 276.544 2.10241H282.508C283.085 2.10241 283.47 2.29255 283.47 2.86297V10.4686C282.508 11.6095 281.931 12.1799 281.739 12.1799H281.546C281.354 12.1799 280.777 11.7996 280.199 11.2292C279.815 12.5602 279.045 13.1306 278.275 13.1306C278.083 13.1306 277.506 12.7503 276.544 11.9897C276.159 11.9897 275.197 11.6095 274.043 10.8489C273.658 10.8489 273.273 10.6587 273.081 10.6587H272.888C271.926 11.6095 270.964 11.9897 270.387 11.9897C270.387 12.37 270.579 13.3207 270.579 15.032H270.772C271.926 15.032 273.658 15.6024 276.159 16.5531H281.354C281.931 16.5531 282.316 16.5531 282.508 16.7433C282.508 19.7855 282.701 22.0672 282.701 23.5883V26.0602C282.701 26.6306 282.123 27.3911 280.969 27.9616C280.969 28.1517 280.969 28.3418 280.777 28.3418L280.969 28.9123V31.5742C280.969 32.3348 280.969 32.7151 281.161 32.7151C282.893 32.7151 283.855 32.9052 283.855 33.0954L284.047 33.6658V42.032C283.663 43.7433 283.47 44.8841 283.47 45.8348V46.7855L283.663 47.5461C283.278 47.7362 282.893 47.7362 282.508 47.7362C281.931 46.9757 281.739 45.8348 281.546 44.3137C281.354 43.363 280.969 42.7926 280.777 42.7926C280.007 42.7926 278.66 43.7433 277.121 45.4545C276.929 45.6447 276.736 45.6447 276.544 45.6447C275.197 45.6447 274.043 44.8841 272.888 43.363H272.696C272.311 43.363 271.541 43.9334 270.387 45.0742C270.002 45.2644 269.617 45.4545 269.233 45.4545H269.04C268.655 45.4545 267.501 45.0742 265.962 44.1235H265.769C265.192 45.4545 264.807 46.0249 264.23 46.0249C264.038 46.0249 264.038 46.2151 263.845 46.2151C263.268 46.2151 262.691 45.2644 261.921 43.7433H261.729C261.344 43.9334 261.152 44.1235 260.767 44.1235H260.382C259.035 44.1235 258.073 43.363 257.688 41.6517C257.688 41.0813 257.496 40.701 257.496 40.5109V40.1306C257.496 39.37 257.881 38.2292 258.843 36.3278V27.3911C258.843 25.4897 258.843 23.0179 258.65 19.7855C257.881 18.8348 257.496 18.0742 257.496 17.5038V16.9334C258.073 13.1306 258.266 10.8489 258.266 10.0883C258.266 9.89818 258.073 7.99678 257.881 4.57424C257.881 4.3841 257.881 4.19396 258.073 3.81368C258.073 3.24325 257.881 2.86297 257.881 2.67283C257.688 1.91227 258.65 1.15171 260.382 0.771423ZM270.002 25.6799V30.4334C270.002 32.3348 271.157 33.0954 273.465 33.0954H279.045C279.237 31.7644 279.237 30.6235 279.237 29.863C279.237 27.5813 278.853 26.6306 278.083 26.6306C278.083 26.4404 277.698 26.2503 276.929 25.87C275.582 26.8207 274.62 27.3911 273.85 27.3911C272.888 27.3911 271.926 26.8207 271.157 25.6799H270.002Z" fill="#F56200"/>
<path d="M289.178 0.570496H289.563C289.755 0.570496 290.332 0.950777 291.294 1.71134C291.487 1.71134 291.872 1.90148 292.449 1.90148C293.988 1.90148 294.95 1.71134 295.335 1.71134C296.297 1.71134 297.066 1.90148 297.259 1.90148C297.451 1.90148 298.413 1.5212 299.76 0.760636H299.952C302.838 0.950777 304.378 1.33106 304.378 1.71134C304.57 1.90148 304.955 1.90148 305.34 1.90148H311.304C311.881 1.90148 312.266 2.09162 312.266 2.66204V10.2677C311.304 11.4085 310.727 11.9789 310.534 11.9789H310.342C310.15 11.9789 309.573 11.5987 308.995 11.0282C308.611 12.3592 307.841 12.9297 307.071 12.9297C306.879 12.9297 306.302 12.5494 305.34 11.7888C304.955 11.7888 303.993 11.4085 302.838 10.648C302.454 10.648 302.069 10.4578 301.876 10.4578H301.684C300.722 11.4085 299.76 11.7888 299.183 11.7888C299.183 12.1691 299.375 13.1198 299.375 14.8311H299.568C300.722 14.8311 302.454 15.4015 304.955 16.3522H310.15C310.727 16.3522 311.112 16.3522 311.304 16.5423C311.304 19.5846 311.496 21.8663 311.496 23.3874V25.8592C311.496 26.4297 310.919 27.1902 309.765 27.7606C309.765 27.9508 309.765 28.1409 309.572 28.1409L309.765 28.7113V31.3733C309.765 32.1339 309.765 32.5142 309.957 32.5142C311.689 32.5142 312.651 32.7043 312.651 32.8944L312.843 33.4649V41.8311C312.459 43.5423 312.266 44.6832 312.266 45.6339V46.5846L312.458 47.3451C312.074 47.5353 311.689 47.5353 311.304 47.5353C310.727 46.7747 310.535 45.6339 310.342 44.1128C310.15 43.162 309.765 42.5916 309.572 42.5916C308.803 42.5916 307.456 43.5423 305.917 45.2536C305.724 45.4437 305.532 45.4437 305.34 45.4437C303.993 45.4437 302.838 44.6832 301.684 43.162H301.492C301.107 43.162 300.337 43.7325 299.183 44.8733C298.798 45.0635 298.413 45.2536 298.028 45.2536H297.836C297.451 45.2536 296.297 44.8733 294.758 43.9226H294.565C293.988 45.2536 293.603 45.824 293.026 45.824C292.834 45.824 292.834 46.0142 292.641 46.0142C292.064 46.0142 291.487 45.0635 290.717 43.5423H290.525C290.14 43.7325 289.948 43.9226 289.563 43.9226H289.178C287.831 43.9226 286.869 43.162 286.484 41.4508C286.484 40.8804 286.292 40.5001 286.292 40.3099V39.9297C286.292 39.1691 286.677 38.0282 287.639 36.1268V27.1902C287.639 25.2888 287.639 22.817 287.446 19.5846C286.677 18.6339 286.292 17.8733 286.292 17.3029V16.7325C286.869 12.9297 287.062 10.648 287.062 9.8874C287.062 9.69726 286.869 7.79585 286.677 4.37331C286.677 4.18317 286.677 3.99303 286.869 3.61275C286.869 3.04233 286.677 2.66205 286.677 2.4719C286.677 1.71134 287.446 0.950777 289.178 0.570496ZM298.798 25.4789V30.2325C298.798 32.1339 299.952 32.8944 302.261 32.8944H307.841C308.033 31.5635 308.033 30.4226 308.033 29.662C308.033 27.3804 307.648 26.4297 306.879 26.4297C306.879 26.2395 306.494 26.0494 305.724 25.6691C304.378 26.6198 303.416 27.1902 302.646 27.1902C301.684 27.1902 300.722 26.6198 299.952 25.4789H298.798Z" fill="#F56200"/>
<path d="M353.632 0.380249C356.518 1.14081 357.865 1.90138 357.865 2.85208C357.673 4.18307 357.673 4.94363 357.673 5.32391V6.08447C357.673 6.6549 357.673 7.79574 357.865 9.31687C357.865 9.69715 357.673 10.4577 357.48 11.5986C358.442 12.7394 358.827 13.5 358.827 14.0704V14.4507C357.865 16.5422 357.48 18.0633 357.48 19.0141V19.9648C357.865 21.676 357.865 22.6267 357.865 22.8169V24.1479C357.865 27.1901 357.673 29.0915 357.096 30.0422L356.903 30.6126C356.903 31.7535 357.288 32.8943 357.865 34.0352C358.058 34.4155 358.058 34.7957 358.058 35.3662V39.3591C358.25 39.9295 358.25 40.1197 358.25 40.3098V40.6901C358.25 41.2605 357.865 42.0211 357.288 43.3521C357.096 49.0563 356.518 52.2887 355.749 52.8591H355.941C354.787 52.8591 354.017 50.9577 353.825 46.9648C353.825 46.5845 353.055 46.014 351.708 45.2535C351.324 46.2042 350.746 46.7746 349.977 47.1549H349.592C348.63 47.1549 347.668 46.3943 346.514 45.0633C346.129 45.0633 345.744 44.8732 345.552 44.8732C345.167 44.8732 344.782 45.0633 344.59 45.4436V46.5845C344.205 47.1549 343.82 47.345 343.628 47.345C342.088 46.3943 341.319 45.6338 341.319 44.8732C340.549 44.3028 339.78 42.9718 339.202 40.8802C337.856 38.5986 337.086 37.4577 337.086 37.0774C337.086 36.507 336.316 35.3662 334.585 33.845C334.585 33.6549 334.2 33.0845 333.238 31.9436C332.853 32.3239 332.853 32.7042 332.853 33.0845V38.0281C332.853 38.5986 332.661 38.7887 332.468 38.9788H332.084C331.699 38.9788 331.314 37.838 331.122 35.7464C331.314 34.4155 331.314 33.4648 331.314 33.0845V32.8943L330.737 24.338C330.16 23.007 329.967 21.8662 329.967 20.9155C327.851 17.1126 326.696 15.0211 326.504 14.2605H326.312V14.4507C326.504 19.3943 326.889 22.0563 327.466 22.0563C327.658 22.4366 327.658 22.6267 327.658 22.8169C327.658 24.9084 327.466 28.7112 327.274 34.4155C327.658 38.4084 327.851 40.3098 328.043 40.3098C328.236 40.5 328.62 41.4507 329.198 43.1619C328.62 44.3028 328.043 45.2535 327.274 45.6338L326.889 45.8239V47.1549C326.889 47.5352 326.504 47.9155 325.927 48.4859C325.157 48.4859 324.58 47.9155 324.58 46.7746V46.3943H324.388C323.426 46.3943 323.041 47.345 323.041 49.4366C322.656 51.338 322.079 52.0986 321.309 52.0986C319.77 51.338 319 49.6267 319 46.9648V46.3943L318.808 45.6338C317.846 46.2042 317.269 46.5845 316.884 46.5845H316.692C315.73 46.2042 315.345 45.2535 315.345 43.7324V41.2605C315.345 40.3098 315.73 38.4084 316.692 35.9366V35.3662C316.114 34.0352 315.73 32.8943 315.73 32.1338C316.114 29.6619 316.114 28.331 316.114 27.9507C315.73 26.0493 315.537 24.7183 315.537 23.9577V23.5774C315.537 23.007 315.73 22.4366 315.922 21.676C315.537 19.7746 315.345 18.6338 315.345 18.4436V17.4929C315.922 16.1619 316.114 15.4014 316.114 15.0211C316.114 14.6408 316.114 13.6901 315.922 11.7887C315.922 11.5986 316.307 10.838 316.884 9.50701V2.09152C316.884 1.90138 316.884 1.90138 317.076 1.90138H331.122C331.891 1.90138 332.661 2.66194 333.238 4.37321C333.238 4.37321 336.509 10.2676 342.858 21.8662L344.397 23.5774H345.167C345.744 23.5774 345.936 23.3873 345.936 23.1972C345.936 22.2464 346.321 21.1056 347.091 19.7746V19.5845C347.091 16.5422 346.898 15.0211 346.514 15.0211V14.6408L346.706 13.1197C346.129 12.3591 345.744 11.7887 345.744 11.4084L346.129 8.93659C346.129 7.98588 345.936 7.6056 345.936 7.6056C345.936 7.41546 346.321 6.84504 347.091 5.89433V2.09152C347.091 1.90138 347.091 1.90138 347.283 1.90138H351.708C351.708 1.90138 352.478 1.33095 353.632 0.380249Z" fill="#F56200"/>
<path d="M393.459 1.71124C400.386 1.71124 404.811 3.80279 406.735 7.79575C407.12 8.36617 407.312 9.8873 407.312 11.9788C407.312 15.2112 406.927 17.3028 406.158 18.6338C405.58 19.9648 405.003 20.7253 404.426 20.7253H404.234L402.31 20.1549C401.54 20.5352 401.155 20.5352 400.963 20.5352V20.7253C403.272 21.2958 405.003 22.2465 406.158 23.7676C407.312 25.2887 407.889 27.1901 407.889 29.2817V30.4225C407.889 31.7535 407.504 33.6549 406.542 35.9366C406.542 37.4577 406.158 38.5986 405.196 38.9789C403.849 39.9296 403.272 40.5 403.272 40.8803C401.925 43.7324 401.348 45.2535 401.348 45.4436C401.155 46.3943 400.578 46.9648 400.001 46.9648H399.616C398.654 46.9648 397.884 46.2042 397.307 44.4929C397.307 43.5422 397.5 42.9718 397.5 42.5915C397.307 42.4014 397.307 42.2113 397.307 42.0211H396.922C396.922 42.7817 396.345 43.3521 395.191 43.5422H394.614C393.459 43.5422 392.305 43.162 391.343 42.5915H391.15C390.958 42.5915 390.188 43.1619 388.457 44.3028L387.88 44.4929C385.186 43.162 383.647 42.4014 383.07 42.4014C381.723 42.4014 380.953 42.9718 380.568 43.9225C380.184 44.8732 379.606 45.2535 378.644 45.2535H377.875C377.105 45.2535 376.336 44.4929 375.951 42.7817L376.336 20.345C376.143 19.5845 376.143 19.0141 376.143 18.8239V18.4436L376.528 15.4014C375.951 12.5493 375.566 10.6479 375.566 9.69716C375.374 9.69716 375.374 9.50702 375.374 8.93659V8.55631C375.374 8.36617 375.758 7.22533 376.528 5.51406C376.528 4.37321 376.72 3.61265 376.72 3.04223V2.28167L376.913 1.90138C382.3 1.71124 387.88 1.71124 393.459 1.71124ZM387.302 26.6197C387.302 28.9014 387.11 30.4225 387.11 31.5634V33.4648H391.15V33.2746C391.15 32.5141 391.15 32.1338 391.343 32.1338C391.343 31.3732 391.15 30.6127 391.15 30.0422V27.3803L390.573 27.5704H390.188C389.996 27.5704 389.419 27.1901 388.264 26.6197H388.072H387.302ZM387.687 12.169V15.4014C387.687 15.7817 387.687 16.3521 387.495 17.1127C387.88 17.1127 388.264 17.1127 388.649 17.3028C392.112 17.3028 394.229 16.7324 394.806 15.7817C395.383 15.2112 395.576 14.2605 395.576 13.3098C395.576 12.5493 395.383 11.9788 394.806 11.5986C394.036 12.5493 393.459 12.9296 392.69 12.9296H392.497C391.92 12.9296 391.15 12.169 390.188 10.4577L389.996 10.2676H389.804C389.611 10.2676 389.419 10.838 388.842 11.7887C388.457 11.9788 388.072 12.169 387.687 12.169ZM393.459 26.6197C392.882 27.9507 392.69 30.0422 392.69 32.8943C392.69 32.8943 392.882 32.8943 392.882 33.0845C394.036 33.0845 395.191 32.3239 395.96 30.8028V30.6127C394.998 29.2817 394.421 28.331 394.421 27.3803C394.036 27 393.652 26.8098 393.459 26.6197Z" fill="#F56200"/>
<path d="M413.469 0.570496H413.854C414.046 0.570496 414.623 0.950777 415.585 1.71134C415.778 1.71134 416.163 1.90148 416.74 1.90148C418.279 1.90148 419.241 1.71134 419.626 1.71134C420.588 1.71134 421.357 1.90148 421.55 1.90148C421.742 1.90148 422.704 1.5212 424.051 0.760636H424.243C427.129 0.950777 428.669 1.33106 428.669 1.71134C428.861 1.90148 429.246 1.90148 429.631 1.90148H435.595C436.172 1.90148 436.557 2.09162 436.557 2.66204V10.2677C435.595 11.4085 435.018 11.9789 434.826 11.9789H434.633C434.441 11.9789 433.864 11.5987 433.286 11.0282C432.901 12.3592 432.132 12.9297 431.362 12.9297C431.17 12.9297 430.593 12.5494 429.631 11.7888C429.246 11.7888 428.284 11.4085 427.129 10.648C426.745 10.648 426.36 10.4578 426.167 10.4578H425.975C425.013 11.4085 424.051 11.7888 423.474 11.7888C423.474 12.1691 423.666 13.1198 423.666 14.8311H423.859C425.013 14.8311 426.745 15.4015 429.246 16.3522H434.441C435.018 16.3522 435.403 16.3522 435.595 16.5423C435.595 19.5846 435.788 21.8663 435.788 23.3874V25.8592C435.788 26.4297 435.21 27.1902 434.056 27.7606C434.056 27.9508 434.056 28.1409 433.864 28.1409L434.056 28.7113V31.3733C434.056 32.1339 434.056 32.5142 434.248 32.5142C435.98 32.5142 436.942 32.7043 436.942 32.8944L437.134 33.4649V41.8311C436.75 43.5423 436.557 44.6832 436.557 45.6339V46.5846L436.75 47.3451C436.365 47.5353 435.98 47.5353 435.595 47.5353C435.018 46.7747 434.825 45.6339 434.633 44.1128C434.441 43.162 434.056 42.5916 433.864 42.5916C433.094 42.5916 431.747 43.5423 430.208 45.2536C430.016 45.4437 429.823 45.4437 429.631 45.4437C428.284 45.4437 427.129 44.6832 425.975 43.162H425.205C424.821 43.162 424.051 43.7325 422.897 44.8733C422.512 45.0635 422.127 45.2536 421.742 45.2536H421.55C421.165 45.2536 420.011 44.8733 418.471 43.9226H418.279C417.702 45.2536 417.317 45.824 416.74 45.824C416.547 45.824 416.547 46.0142 416.355 46.0142C415.778 46.0142 415.201 45.0635 414.431 43.5423H414.239C413.854 43.7325 413.661 43.9226 413.277 43.9226H412.892C411.545 43.9226 410.583 43.162 410.198 41.4508C410.198 40.8804 410.006 40.5001 410.006 40.3099V39.9297C410.006 39.1691 410.391 38.0282 411.353 36.1268V27.1902C411.353 25.2888 411.353 22.817 411.16 19.5846C410.391 18.6339 410.006 17.8733 410.006 17.3029V16.7325C410.583 12.9297 410.775 10.648 410.775 9.8874C410.775 9.69726 410.583 7.79585 410.391 4.37331C410.391 4.18317 410.391 3.99303 410.583 3.61275C410.583 3.04233 410.391 2.66205 410.391 2.4719C410.775 1.71134 411.737 0.950777 413.469 0.570496ZM423.089 25.4789V30.2325C423.089 32.1339 424.243 32.8944 426.552 32.8944H432.132C432.324 31.5635 432.324 30.4226 432.324 29.662C432.324 27.3804 431.94 26.4297 431.17 26.4297C431.17 26.2395 430.785 26.0494 430.015 25.6691C428.669 26.6198 427.707 27.1902 426.937 27.1902C425.975 27.1902 425.013 26.6198 424.243 25.4789H423.089Z" fill="#F56200"/>
<path d="M454.643 1.71124H455.22C455.605 1.71124 456.375 1.90138 457.529 2.09152C463.301 2.09152 467.149 1.90138 468.688 1.90138C469.073 2.09152 470.227 6.27462 472.729 14.4507C472.921 14.831 473.883 18.2535 475.999 24.7183C477.539 25.2887 478.308 26.6197 478.308 28.7112C478.308 29.0915 478.308 29.662 478.501 30.4225C478.501 30.8028 478.308 31.1831 478.308 31.5634C478.308 32.1338 479.463 35.9366 481.579 42.7817V43.162C481.579 44.4929 481.194 45.2535 480.232 45.2535L479.655 45.4436C479.463 45.4436 478.693 44.6831 477.539 43.162C476.961 42.7817 476.192 42.7817 475.422 42.7817C475.422 42.7817 474.653 42.9718 473.498 43.3521H472.921V44.3028C472.921 45.0634 472.151 46.0141 470.805 46.9648H470.42C469.65 46.9648 469.073 46.0141 468.688 43.9225V43.3521C468.688 42.9718 468.688 42.2112 468.881 40.8803C468.881 40.5 468.496 39.5493 467.919 38.4084V36.6972C467.919 36.1267 467.341 35.3662 466.187 34.4155C464.455 34.6056 463.686 34.9859 463.686 35.5563C463.109 36.1267 462.339 36.6972 461.377 36.8873C460.8 36.8873 460.03 36.1267 458.876 34.7958L458.683 34.6056C457.144 34.6056 456.182 35.3662 456.182 36.8873C456.182 37.838 455.797 38.2183 454.835 38.2183C454.066 38.2183 453.104 39.9296 452.334 43.162C452.334 44.4929 451.949 45.2535 451.18 45.2535H450.603C449.641 45.2535 449.063 44.3028 448.679 42.5915C447.332 43.5422 446.37 43.9225 445.985 43.9225H445.793C445.215 43.9225 444.253 43.3521 443.099 42.0211H442.907C442.714 42.0211 442.329 42.9718 441.752 44.6831L441.175 45.0634C440.598 45.0634 440.213 44.4929 440.021 43.3521V41.4507C440.983 39.3591 444.638 29.4718 450.987 11.7887C451.18 11.5986 451.372 11.2183 451.372 10.6479V9.50702C451.372 7.79575 451.757 5.7042 452.719 3.23237C452.527 2.28167 453.489 1.71124 454.643 1.71124ZM460.223 13.1197C457.914 20.7253 456.759 24.7183 456.759 25.4789H459.645C460.223 25.4789 460.8 25.4789 460.992 25.2887C460.992 23.007 461.185 21.2958 461.185 20.1549V19.5845C461.185 17.4929 460.992 15.9718 460.415 15.4014V15.2112C460.607 14.2605 460.8 13.5 460.8 13.3098L460.607 13.1197H460.223ZM462.724 17.8732L462.531 19.0141C462.531 19.7746 462.531 21.1056 462.339 23.3873C462.147 23.7676 461.954 24.1479 461.954 24.5281V25.4789C462.531 25.4789 462.916 25.669 463.109 25.669C464.071 25.669 464.455 25.4789 464.455 25.2887C463.686 20.345 462.916 17.8732 462.724 17.8732Z" fill="#F56200"/>
<path d="M485.427 1.71124H486.966C500.049 1.71124 506.976 2.09152 507.745 2.85209C510.824 3.61265 512.94 4.94364 514.479 6.84505C516.211 8.74645 516.981 11.4084 516.981 14.831C516.981 16.5422 516.403 18.8239 515.057 21.4859C514.864 23.9577 514.672 26.0493 514.672 28.1408V32.8943C514.672 33.6549 516.211 36.1267 519.482 40.5C521.021 42.7817 521.791 43.9225 521.791 44.3028V44.6831C521.791 45.4436 521.406 45.8239 520.829 45.8239C520.829 46.2042 519.867 46.7746 518.135 47.345C517.75 47.345 517.365 48.8662 516.981 52.0986L516.596 52.4789H515.634C515.057 51.9084 514.672 51.1479 514.672 50.5774C514.672 50.3873 514.672 49.2465 514.864 47.5352C514.864 46.3943 514.479 45.6338 513.71 45.2535C513.325 45.0634 512.94 44.8732 512.555 44.8732C511.593 47.3451 510.824 48.676 510.631 49.0563H509.862C508.9 48.8662 508.515 47.7253 508.515 45.8239C508.515 45.2535 508.13 44.6831 507.361 43.9225V42.7817L506.783 42.5915C506.783 42.5915 506.591 42.7817 506.206 42.9718H505.437C504.09 42.2112 503.513 40.5 503.513 38.0281C503.128 36.1267 502.743 34.9859 502.358 34.9859C501.973 34.6056 501.396 33.6549 500.627 31.9436C499.665 31.3732 498.895 30.6127 498.318 29.8521C498.125 32.5141 497.933 33.845 497.933 34.0352C498.125 35.176 498.318 36.3169 498.318 37.4577C497.741 38.4084 497.548 39.5493 497.548 41.0704C498.125 43.3521 498.51 44.6831 498.51 45.2535V45.6338C498.318 46.0141 497.933 46.2042 497.548 46.2042C497.163 46.2042 496.779 46.0141 496.201 45.8239C495.047 48.676 494.277 50.1972 493.893 50.1972H493.508C492.738 49.8169 492.353 49.2465 492.161 48.4859C490.814 47.345 489.852 46.2042 489.275 45.2535C488.698 46.2042 488.121 46.7746 487.543 46.7746C486.966 46.7746 486.389 46.2042 485.619 44.8732C485.619 44.4929 485.235 43.5422 484.465 42.2112V41.831C485.042 39.9296 485.234 38.7887 485.234 38.4084C485.042 37.0774 485.042 35.7465 485.042 34.4155V33.845C485.042 33.6549 485.234 33.2746 485.619 32.5141C485.042 30.9929 484.657 30.0422 484.657 29.6619L485.042 26.6197C484.465 25.4788 484.08 24.7183 484.08 24.1479C484.08 23.7676 484.657 23.007 486.004 21.8662V19.9648C485.235 17.4929 484.85 16.1619 484.85 15.9718C484.85 15.2112 484.657 14.6408 484.657 14.2605C484.657 13.8803 484.85 13.1197 485.042 11.9788C484.85 10.838 484.657 10.0774 484.657 9.69716C484.657 8.74645 484.85 7.98589 485.042 7.22533C484.465 6.84505 484.08 6.46476 483.888 6.27462C483.888 5.89434 484.08 5.32392 484.465 4.56336C484.465 4.37321 484.273 4.18307 484.08 3.80279V3.42251C483.888 2.85209 484.465 2.28167 485.427 1.71124ZM497.548 11.9788C497.548 12.3591 497.356 13.1197 497.163 14.6408C497.163 14.831 497.548 15.2112 498.318 15.7817L498.51 16.1619C498.318 17.1127 498.125 17.4929 498.125 17.8732C498.125 18.6338 498.895 19.2042 500.434 19.7746H500.627C501.396 19.7746 501.781 19.5845 501.973 19.0141C501.781 16.7324 501.781 15.0211 501.781 13.6901L501.973 12.7394H501.781C501.396 12.9296 501.011 12.9296 500.819 12.9296C500.242 13.1197 499.28 12.7394 497.548 11.9788ZM503.513 15.9718V16.7324C503.513 17.1127 503.513 17.6831 503.705 18.6338C504.09 18.4436 504.282 18.0634 504.282 17.4929V16.7324C504.282 14.831 504.09 13.5 503.897 12.9296C503.705 12.9296 503.513 13.8803 503.513 15.9718ZM510.824 25.0986V25.8591C510.824 27.3803 511.593 28.9014 512.94 30.4225L513.133 29.4718C513.133 28.9014 513.133 28.331 512.94 27.9507C512.94 27 513.133 26.0493 513.133 24.9084V24.338L513.325 23.1972C511.978 24.1479 511.209 24.7183 510.824 25.0986Z" fill="#F56200"/>
<path d="M540.838 2.09155H542.378C546.803 2.09155 551.228 3.04226 555.846 5.13381V5.32395L554.884 7.4155C555.076 7.79578 555.269 8.17606 555.269 8.3662V8.55634C555.269 8.93663 554.691 9.88733 553.537 11.4085V14.831C553.537 17.3028 553.152 18.4437 552.575 18.4437H552.383C551.228 18.4437 550.266 16.9225 549.881 14.0704C549.689 13.1197 549.304 12.7394 548.535 12.7394C547.38 12.7394 546.033 12.3592 544.494 11.4085H543.917C543.532 11.9789 543.147 12.3592 542.955 12.5493H542.57C542.378 12.5493 541.8 12.3592 540.646 11.9789C538.53 12.5493 537.568 13.3099 537.568 13.8803V14.2606C537.568 15.5916 540.646 17.493 546.61 20.1549C551.228 22.4366 553.922 24.9085 554.884 27.5704C555.653 30.0423 556.23 31.1831 556.615 31.3733C556.808 31.5634 557 31.9437 557 32.1338V32.5141C557 32.8944 556.615 33.6549 555.653 34.9859C555.653 35.5564 555.269 39.5493 554.499 46.7747C554.499 47.3451 554.691 47.7254 554.691 47.9155L554.114 48.2958H553.922C553.344 48.1057 552.767 46.3944 552.575 43.3521H552.383C552.383 43.5423 552.383 43.7324 552.19 43.7324H551.805C551.613 43.7324 551.421 43.3521 551.421 43.162V42.7817H551.228C551.228 44.493 550.843 45.4437 550.266 45.824C549.881 45.824 549.496 46.9648 549.112 49.0564C548.919 49.6268 548.535 50.0071 548.535 50.0071H548.15C547.38 49.4366 546.995 48.8662 546.995 48.2958L547.38 46.5845C547.38 46.0141 546.995 45.2535 546.418 44.6831C544.879 44.8733 543.724 45.4437 542.57 46.0141C541.993 46.2043 540.646 46.5845 538.722 47.1549C536.413 47.1549 535.066 46.9648 534.489 46.5845C533.912 45.824 533.72 45.4437 533.527 45.4437C531.026 46.0141 529.679 46.7747 529.679 47.5352C529.679 48.4859 529.872 48.8662 529.872 49.0564C529.679 49.6268 529.294 49.8169 528.717 49.8169C528.14 49.8169 527.563 49.0564 526.986 47.5352C526.986 45.2535 526.408 43.5423 525.254 42.5916C525.062 42.4014 524.869 42.0211 524.869 41.6409V39.9296C524.869 39.7395 524.677 39.3592 524.292 38.9789C524.677 38.2183 525.062 37.6479 525.254 37.2676C524.869 36.1268 524.677 35.3662 524.677 35.1761V34.7958C524.677 34.2254 525.062 33.8451 525.831 33.6549C525.831 33.2747 526.024 33.0845 526.216 33.0845C530.449 34.9859 533.335 35.9366 534.682 35.9366C534.682 35.9366 534.874 36.1268 535.259 36.1268V35.9366C535.259 35.3662 535.259 33.0845 535.451 29.2817C535.451 28.5211 535.066 27.9507 534.297 27.3803H533.912C532.565 27.3803 531.218 26.6197 530.256 24.9085C530.064 24.5282 529.294 24.338 528.525 23.9578C528.525 23.7676 527.948 23.3873 526.986 23.0071C525.639 21.1056 525.062 19.7747 525.062 18.6338L525.254 17.6831L524.677 17.1127C525.254 13.5 526.216 10.6479 527.563 8.55634C528.91 6.27465 531.411 4.37324 535.259 3.04226C537.568 2.47183 539.299 2.09155 540.838 2.09155ZM537.568 28.331C537.568 28.9014 537.375 31.5634 536.99 35.9366L539.299 36.1268C541.993 36.1268 543.532 35.3662 543.917 33.6549C543.917 33.4648 543.917 33.2747 544.109 33.2747C544.109 32.1338 543.532 31.1831 542.378 30.6127L542.185 30.8028H541.993C541.608 30.0423 541.031 29.662 540.454 29.662C539.107 28.9014 538.145 28.331 537.568 28.331Z" fill="#F56200"/>
</svg>
