<svg width="79" height="79" viewBox="0 0 79 79" fill="none" xmlns="http://www.w3.org/2000/svg">
<circle cx="39.5" cy="39.5" r="37" fill="#202770" stroke="url(#paint0_angular_79)" stroke-width="5"/>
<g clip-path="url(#clip0_79)">
<path d="M50.7556 56.5308C50.2196 56.5308 49.7507 56.1301 49.7507 55.529L49.0807 35.16L42.3142 55.7962C42.1802 56.1969 41.7783 56.464 41.3763 56.464H36.0167C35.5477 56.464 35.1458 56.1301 35.0118 55.7294L30.2551 36.2953L29.2502 55.529C29.2502 56.0633 28.7812 56.464 28.2453 56.464H21.0098C20.7418 56.464 20.4738 56.3305 20.2729 56.1301C20.0719 55.9298 20.0049 55.6626 20.0049 55.3955L22.6847 22.7382C22.7517 22.2039 23.1536 21.8032 23.6896 21.8032H33.8059C34.2748 21.8032 34.6768 22.1371 34.8108 22.5378L39.6344 41.9052L45.999 22.4711C46.1329 22.0704 46.5349 21.8032 46.9369 21.8032H55.9812C56.5172 21.8032 56.9861 22.2039 56.9861 22.7382L58.862 55.3955C58.862 55.6626 58.795 55.9298 58.594 56.1301C58.393 56.3305 58.1251 56.464 57.8571 56.464H50.7556V56.5308Z" fill="url(#paint1_linear_79)"/>
<path d="M55.9813 22.8048L57.8571 55.4621H50.7556L49.8847 29.4164L41.3093 55.4621H35.9497L29.5852 29.4164L28.2453 55.4621H21.0099L23.6897 22.8048H33.8059L39.4335 45.5781L46.8699 22.8048H55.9813ZM55.9813 20.8013H46.8699C45.999 20.8013 45.2621 21.3355 44.9271 22.2037L39.6345 38.3654L35.7488 22.3373C35.5478 21.4691 34.7438 20.8013 33.8059 20.8013H23.6897C22.6847 20.8013 21.8138 21.6027 21.6798 22.6712L19 55.3285C18.933 55.8628 19.134 56.4638 19.536 56.8645C19.9379 57.2652 20.4739 57.5324 21.0099 57.5324H28.2453C29.3172 57.5324 30.1882 56.6642 30.2552 55.6624L30.9251 43.2406L34.0739 55.9963C34.2749 56.8645 35.0788 57.5324 36.0167 57.5324H41.3763C42.2473 57.5324 42.9842 56.9981 43.3192 56.1299L48.3438 40.8364L48.8128 55.5289C48.8798 56.5974 49.7507 57.4656 50.8226 57.4656H57.8571C58.3931 57.4656 58.929 57.2652 59.331 56.8645C59.733 56.4638 59.934 55.9296 59.867 55.3953L57.9911 22.738C57.9241 21.6695 57.0532 20.8013 55.9813 20.8013Z" fill="#F8F4F4"/>
</g>
<defs>
<radialGradient id="paint0_angular_79" cx="0" cy="0" r="1" gradientUnits="userSpaceOnUse" gradientTransform="translate(39.5 39.5) rotate(90) scale(39.5)">
<stop offset="0.0466884" stop-color="#5B74AB"/>
<stop offset="0.223749" stop-color="#D2207E"/>
<stop offset="0.687101" stop-color="#5E2D74"/>
<stop offset="0.884022" stop-color="#4F629A"/>
</radialGradient>
<linearGradient id="paint1_linear_79" x1="39.4147" y1="56.5003" x2="39.4147" y2="21.8239" gradientUnits="userSpaceOnUse">
<stop stop-color="#DA1F7F"/>
<stop offset="0.1668" stop-color="#CC217D"/>
<stop offset="0.1923" stop-color="#C1237C"/>
<stop offset="0.3455" stop-color="#842A77"/>
<stop offset="0.4709" stop-color="#592D73"/>
<stop offset="0.5623" stop-color="#3A2D70"/>
<stop offset="0.6102" stop-color="#2D2D6F"/>
<stop offset="0.6835" stop-color="#2E2F71"/>
<stop offset="0.7449" stop-color="#313675"/>
<stop offset="0.8021" stop-color="#38407D"/>
<stop offset="0.8567" stop-color="#414E88"/>
<stop offset="0.9094" stop-color="#4E6199"/>
<stop offset="0.9601" stop-color="#5F79B0"/>
<stop offset="1" stop-color="#6E95CD"/>
</linearGradient>
<clipPath id="clip0_79">
<rect width="41" height="38" fill="white" transform="translate(19 20)"/>
</clipPath>
</defs>
</svg>
