<svg width="841" height="115" viewBox="0 0 841 115" fill="none" xmlns="http://www.w3.org/2000/svg">
<g clip-path="url(#clip0_92)">
<path d="M82.877 112.577C82.2333 112.577 81.7505 112.254 81.4287 111.931C81.1068 111.447 80.9459 110.962 81.1068 110.316L87.8657 76.882L59.5427 108.701C59.2209 109.185 58.5771 109.347 58.0944 109.347C57.9334 109.347 57.9334 109.347 57.7725 109.347C57.1288 109.185 56.646 108.862 56.3242 108.216L40.7143 76.3975L33.9555 110.962C33.7945 111.931 32.9899 112.577 32.0243 112.577H3.86227C2.73578 112.577 1.93115 111.77 1.93115 110.639V107.893C1.93115 107.732 1.93115 107.57 1.93115 107.57L23.4953 4.84552C23.6562 3.87641 24.4608 3.23035 25.4264 3.23035H37.0131C37.8177 3.23035 38.4614 3.7149 38.7832 4.36096L64.5314 59.7612L114.097 4.03793C114.579 3.55338 115.062 3.23035 115.545 3.23035H131.316C131.959 3.23035 132.442 3.55338 132.764 3.87641C133.086 4.36096 133.247 4.84552 133.247 5.49158L113.453 110.962C113.292 111.931 112.487 112.577 111.522 112.577H82.877Z" fill="url(#paint0_linear_92)"/>
<path d="M131.316 5.33014L111.522 110.639H82.877L91.0842 70.2599L58.0943 107.409L40.0706 70.4214L32.1852 110.639H3.86223V107.893L25.2654 5.33014H37.013L63.8877 63.4762L115.545 5.33014H131.316ZM131.316 1.45374H115.545C114.418 1.45374 113.453 1.93829 112.648 2.74587L65.0142 56.3695L40.5534 3.55345C39.9097 2.26132 38.6223 1.45374 37.013 1.45374H25.2654C23.4952 1.45374 21.886 2.74587 21.5641 4.52256L0.160926 107.086C0 107.409 0 107.732 0 107.893V110.639C0 112.739 1.77019 114.516 3.86223 114.516H32.0243C33.7945 114.516 35.4038 113.223 35.8865 111.447L41.5189 82.3737L54.554 109.024C55.1977 110.155 56.1632 110.962 57.4506 111.124C57.6116 111.124 57.7725 111.124 57.9334 111.124C59.0599 111.124 60.0255 110.639 60.8301 109.832L84.1644 83.3428L79.0147 109.832C78.8538 110.962 79.0147 112.093 79.8194 113.062C80.624 114.031 81.5896 114.516 82.877 114.516H111.683C113.614 114.516 115.062 113.223 115.545 111.285L135.017 6.13772C135.178 5.81469 135.178 5.49166 135.178 5.33014C135.178 3.0689 133.408 1.45374 131.316 1.45374Z" fill="#FCFAFB"/>
<path d="M129.384 110.962C128.741 110.962 128.258 110.639 127.936 110.316C127.614 109.831 127.453 109.347 127.453 108.701L147.73 4.84552C147.891 3.87641 148.695 3.23035 149.661 3.23035H214.031C214.675 3.23035 215.158 3.55338 215.48 4.03793C215.802 4.52248 215.963 5.16855 215.802 5.6531L209.847 31.3343C209.686 32.1419 208.882 32.7879 207.916 32.7879L173.961 33.111L172.352 43.9326L198.261 44.5787C198.904 44.5787 199.387 44.9017 199.709 45.2247C200.031 45.5478 200.192 46.1938 200.031 46.8399L196.33 68.6447C196.169 69.6138 195.364 70.2598 194.398 70.2598L167.363 70.9059L164.788 82.5351H198.261C198.904 82.5351 199.387 82.8582 199.709 83.1812C200.031 83.6657 200.192 84.1503 200.031 84.7964L195.042 109.347C194.881 110.316 194.077 110.962 193.111 110.962H129.384Z" fill="url(#paint1_linear_92)"/>
<path d="M213.871 5.33014L207.916 31.0113L172.352 31.3344L170.26 45.8709L198.422 46.5169L194.399 68.3217L165.915 68.9678L162.535 84.4734H198.422L193.433 109.024H129.384L149.5 5.33014H213.871ZM213.871 1.45374H149.5C147.73 1.45374 146.121 2.74587 145.638 4.52256L125.683 108.216C125.522 109.347 125.683 110.478 126.488 111.447C127.292 112.416 128.258 112.9 129.545 112.9H193.594C195.364 112.9 196.973 111.608 197.456 109.832L202.445 85.281C202.606 84.1504 202.445 83.0198 201.64 82.0507C200.836 81.0816 199.87 80.597 198.583 80.597H167.363L169.133 72.6827L194.559 72.1981C196.33 72.1981 197.939 70.906 198.261 68.9678L202.284 47.163C202.445 46.0324 202.123 44.9018 201.479 43.9327C200.836 43.1251 199.709 42.479 198.583 42.479L174.766 41.9945L175.731 35.0492L208.077 34.7262C209.847 34.7262 211.457 33.4341 211.779 31.6574L217.572 6.13772C217.733 5.81469 217.733 5.49166 217.733 5.00711C217.733 3.0689 216.124 1.45374 213.871 1.45374Z" fill="#FCFAFB"/>
<path d="M225.78 110.962C225.136 110.962 224.653 110.639 224.331 110.316C224.009 109.831 223.849 109.347 224.009 108.701L239.297 33.2725L218.86 32.9494C218.377 32.9494 217.733 32.6264 217.411 32.3034C217.09 31.8188 216.929 31.3343 216.929 30.6882L220.952 5.00701C221.113 4.03791 221.917 3.39185 222.883 3.39185H296.587C297.231 3.39185 297.714 3.71488 298.035 4.03791C298.357 4.36095 298.518 5.00701 298.518 5.65308L293.851 31.6573C293.69 32.6264 292.886 33.2725 291.92 33.2725H271.161L256.356 109.347C256.195 110.316 255.39 110.962 254.424 110.962H225.78Z" fill="url(#paint2_linear_92)"/>
<path d="M296.587 5.33014L291.92 31.3344H269.551L254.424 109.024H225.619L241.389 31.3344L218.86 31.0113L222.883 5.33014H296.587ZM296.587 1.45374H222.883C220.952 1.45374 219.343 2.90739 219.021 4.68407L214.998 30.3653C214.837 31.4959 215.158 32.6265 215.802 33.4341C216.446 34.2417 217.572 34.7262 218.699 34.8877L236.562 35.2108L221.917 108.216C221.756 109.347 221.917 110.478 222.722 111.447C223.527 112.416 224.492 112.9 225.78 112.9H254.585C256.356 112.9 257.965 111.608 258.448 109.832L272.931 35.2108H292.081C294.012 35.2108 295.622 33.9186 295.943 31.9804L300.61 5.97621C300.771 4.84559 300.449 3.71497 299.806 2.74587C298.84 1.93829 297.714 1.45374 296.587 1.45374Z" fill="#FCFAFB"/>
<path d="M349.21 5.32996H334.405L269.712 109.024H301.254L308.335 97.8791H343.256L345.67 109.024H373.832L349.21 5.32996ZM329.094 72.0364L331.508 66.7064L333.117 72.0364H329.094Z" fill="url(#paint3_linear_92)"/>
<path d="M349.21 5.33004L373.992 109.024H345.83L343.416 97.8792H308.495L301.415 109.024H269.873L334.565 5.33004H349.21ZM349.21 0.161499H334.405C332.634 0.161499 331.025 1.1306 330.06 2.58425L265.367 106.278C264.402 107.893 264.402 109.831 265.206 111.447C266.172 113.062 267.781 114.031 269.712 114.031H301.254C303.024 114.031 304.633 113.062 305.599 111.608L311.231 102.725H339.232L340.842 109.831C341.324 112.254 343.416 113.869 345.83 113.869H373.992C375.602 113.869 377.05 113.223 378.016 111.931C378.981 110.639 379.303 109.024 378.981 107.57L354.198 4.0379C353.716 1.77667 351.624 0.161499 349.21 0.161499Z" fill="#FCFAFB"/>
<path d="M331.508 66.7064L333.117 72.0365H329.094L331.508 66.7064ZM332.313 55.8848L327.968 65.0912L325.554 70.4213L322.979 75.9129H329.094H333.117H338.267L336.819 70.9058L335.209 65.5758L332.313 55.8848Z" fill="#FCFAFB"/>
<path d="M467.49 68.8062C467.33 67.0295 466.364 62.3455 462.663 57.9846C458.64 53.4621 453.973 52.0085 452.202 51.5239C452.202 51.5239 468.939 41.8329 464.272 22.2894C459.605 2.74582 432.73 5.33009 432.73 5.33009H404.568L384.774 109.024H433.052C434.983 109.024 449.306 108.862 459.605 96.9101C469.904 84.9579 467.812 70.7444 467.49 68.8062ZM430.477 35.5337H434.018C434.179 35.5337 434.501 35.6953 434.822 36.0183C435.305 36.5028 435.305 37.1489 435.305 37.4719C435.305 37.795 435.305 38.2795 434.983 38.6026C434.501 39.4101 433.374 39.4101 433.213 39.4101H429.673L430.477 35.5337ZM435.466 73.8132C435.466 74.2978 435.305 75.5899 434.179 76.7205C433.052 77.8512 431.765 77.8512 431.443 77.8512H424.523L425.811 69.9368H432.73C433.052 69.9368 433.696 70.0983 434.34 70.5829C435.466 71.7135 435.466 73.4902 435.466 73.8132Z" fill="url(#paint4_linear_92)"/>
<path d="M435.788 5.16854C443.03 5.16854 460.571 6.78371 464.272 22.2893C468.939 41.8329 452.203 51.5239 452.203 51.5239C453.973 52.0084 458.64 53.4621 462.663 57.9846C466.364 62.3455 467.33 67.0295 467.491 68.8062C467.812 70.7444 469.904 84.9579 459.444 96.9101C449.467 108.539 435.788 109.024 433.213 109.024C433.052 109.024 433.052 109.024 433.052 109.024H384.775L404.568 5.33006H432.731C432.731 5.33006 434.018 5.16854 435.788 5.16854ZM429.995 39.4101L430.639 35.3722L429.995 39.4101ZM424.362 78.0126H431.282C431.765 78.0126 424.362 78.0126 424.362 78.0126ZM435.788 0C434.179 0 433.052 0 432.57 0.161517H404.568C402.155 0.161517 400.063 1.9382 399.58 4.36096L379.786 108.055C379.464 109.508 379.947 111.124 380.912 112.254C381.878 113.385 383.326 114.192 384.935 114.192H433.213H433.374C437.719 114.192 452.524 113.223 463.467 100.302C474.893 87.0576 473.123 71.3904 472.64 67.9986C472.318 65.0913 471.031 59.5997 466.686 54.4312C465.077 52.6545 463.467 51.2008 461.858 50.0702C467.491 43.9326 472.479 33.9185 469.422 20.9972C466.203 7.91433 453.651 0 435.788 0Z" fill="#FCFAFB"/>
<path d="M434.179 35.5338C434.339 35.5338 434.661 35.6953 434.983 36.0183C435.466 36.5029 435.466 37.1489 435.466 37.472C435.466 37.795 435.466 38.2795 435.144 38.6026C434.661 39.4102 433.535 39.4102 433.374 39.4102H429.834L430.477 35.3722H434.179V35.5338ZM434.5 31.6573H434.018H430.477H427.098L426.615 34.8877L425.971 38.9256L425.328 43.4481H429.834H433.374C434.983 43.4481 437.236 42.802 438.363 40.7023C439.167 39.2486 439.167 37.9565 439.167 37.472V37.3104V37.1489C439.167 36.5029 439.006 34.7262 437.558 33.2725C436.753 32.4649 435.788 31.9804 434.822 31.6573H434.5Z" fill="#FCFAFB"/>
<path d="M432.73 69.9368C433.052 69.9368 433.696 70.0984 434.339 70.5829C435.627 71.552 435.466 73.3287 435.466 73.8133C435.466 74.2978 435.305 75.5899 434.179 76.7206C433.052 77.8512 431.765 77.8512 431.443 77.8512H424.523L425.81 69.9368H432.73ZM432.891 66.0604H432.73H425.81H422.592L422.109 69.2908L420.822 77.2051L420.017 81.7276H424.523H431.443C432.247 81.7276 434.822 81.5661 436.914 79.4664C438.363 78.0127 439.167 76.0745 439.328 73.9748C439.489 70.4214 437.88 68.4832 436.753 67.5141C435.788 66.7065 434.5 66.0604 433.213 65.8989L432.891 66.0604Z" fill="#FCFAFB"/>
<path d="M473.445 111.77C472.801 111.77 472.318 111.447 471.996 111.124C471.675 110.639 471.514 110.155 471.514 109.508L491.308 4.84552C491.468 3.87641 492.273 3.23035 493.239 3.23035H557.77C558.414 3.23035 558.896 3.55338 559.218 3.87641C559.54 4.19945 559.701 4.84552 559.54 5.49158L554.391 31.4958C554.23 32.4649 553.425 33.111 552.459 33.111H518.182L516.573 43.9326H542.643C543.287 43.9326 543.769 44.2556 544.091 44.5787C544.413 45.0632 544.574 45.5478 544.574 46.1938L540.551 68.6447C540.39 69.6138 539.585 70.2598 538.62 70.2598L511.101 70.5829L509.331 82.0506L542.643 81.8891C543.287 81.8891 543.769 82.2121 544.091 82.5351C544.413 83.0197 544.574 83.5042 544.574 84.1503L539.907 109.993C539.746 110.962 538.942 111.608 537.976 111.608H473.445V111.77Z" fill="url(#paint5_linear_92)"/>
<path d="M557.77 5.33014L552.621 31.3344H516.573L514.481 46.0324H542.804L538.781 68.4832L509.653 68.8063L507.4 84.1504L542.965 83.9889L538.298 109.832H473.767L493.561 5.33014H557.77ZM557.77 1.45374H493.239C491.308 1.45374 489.859 2.74587 489.376 4.68407L469.583 109.186C469.422 110.316 469.743 111.447 470.387 112.416C471.192 113.385 472.157 113.869 473.284 113.869H537.815C539.746 113.869 541.356 112.577 541.678 110.639L546.344 84.7964C546.505 83.6658 546.183 82.5352 545.54 81.5661C544.735 80.7585 543.77 80.1125 542.643 80.1125L511.584 80.274L512.711 72.6827L538.62 72.3596C540.39 72.3596 541.999 71.0675 542.321 69.1293L546.344 46.6785C546.505 45.5478 546.183 44.4172 545.54 43.4481C544.735 42.6405 543.77 41.9945 542.643 41.9945H518.826L519.792 35.0493H552.621C554.391 35.0493 556 33.7571 556.483 31.9804L561.632 6.13773C561.632 5.81469 561.793 5.49166 561.793 5.16862C561.632 3.0689 559.862 1.45374 557.77 1.45374Z" fill="#FCFAFB"/>
<path d="M748.629 32.4648C748.468 28.1038 747.341 24.712 746.537 22.7738C742.674 14.0519 734.306 8.07574 725.938 6.62209C724.651 6.46057 723.685 6.29906 722.88 6.29906C709.202 5.97602 695.362 5.65299 681.683 5.32996L661.729 109.831H689.569L697.293 69.4522L716.765 109.831H746.698L725.455 69.4522C725.133 69.4522 749.594 61.5378 748.629 32.4648ZM710.811 45.2246H707.753L709.202 36.6642C713.547 36.6642 714.995 36.6642 714.834 41.0252C714.512 45.2246 710.811 45.2246 710.811 45.2246Z" fill="url(#paint6_linear_92)"/>
<path d="M681.683 5.33004C695.362 5.65307 709.202 5.97611 722.88 6.29914C723.685 6.29914 724.651 6.46066 725.938 6.62217C734.306 8.07583 742.674 14.0519 746.536 22.7739C747.341 24.8736 748.468 28.1039 748.629 32.4649C749.755 61.6994 725.294 69.4522 725.294 69.4522L746.536 109.831H716.604L697.132 69.4522L689.408 109.831H661.568L681.683 5.33004ZM681.683 0.161499C679.269 0.161499 677.177 1.93818 676.695 4.36094L656.579 108.862C656.257 110.316 656.74 111.931 657.705 113.062C658.671 114.192 660.119 115 661.728 115H689.569C691.983 115 694.075 113.223 694.557 110.801L699.385 85.7654L712.098 112.093C712.903 113.869 714.673 115 716.765 115H746.697C748.468 115 750.238 114.031 751.042 112.577C752.008 110.962 752.008 109.185 751.203 107.57L732.536 72.198C742.352 66.7065 754.744 54.2696 753.939 32.4649C753.778 28.427 752.973 24.5505 751.364 20.8357C747.019 10.9831 737.525 3.39184 727.064 1.61515C725.455 1.29212 724.168 1.29212 723.524 1.29212H723.363C716.443 1.1306 709.684 0.969083 702.765 0.807567C695.523 0.484533 688.764 0.323016 681.683 0.161499C681.844 0.161499 681.844 0.161499 681.683 0.161499Z" fill="#FCFAFB"/>
<path d="M709.041 36.6644C713.386 36.6644 714.834 36.6644 714.673 41.0253C714.512 45.3863 710.65 45.3863 710.65 45.3863H707.592L709.041 36.6644ZM709.041 32.788H705.822L705.339 36.0183L703.891 44.5787L703.086 49.1012H707.592H710.65C713.708 49.1012 718.214 47.0014 718.535 41.0253C718.696 39.0871 718.535 36.5029 716.765 34.7262C714.834 32.788 712.259 32.788 709.041 32.788Z" fill="#FCFAFB"/>
<path d="M789.182 112.416C773.894 112.416 764.882 106.601 759.893 101.594C754.422 96.264 752.652 90.7724 752.652 90.6109C752.491 89.9648 752.652 89.1572 753.134 88.5112L771.641 71.8749C771.963 71.5519 772.446 71.3904 772.928 71.3904C773.089 71.3904 773.25 71.3904 773.411 71.3904C774.055 71.5519 774.538 72.0365 774.699 72.6825C775.664 76.2359 784.998 84.1502 792.561 84.1502C794.975 84.1502 796.906 83.3426 798.355 81.5659C799.642 79.7893 800.125 78.0126 799.803 76.3974C798.837 72.198 793.205 68.6446 791.113 67.514C790.63 67.3525 776.63 61.0533 769.066 46.0322C765.687 39.087 766.33 30.2036 770.836 22.1277C776.791 11.3061 788.377 4.19936 801.573 3.06874C803.022 2.90723 804.309 2.90723 805.757 2.90723C828.77 2.90723 838.425 19.3819 838.908 20.028C839.391 20.8356 839.23 21.8047 838.425 22.4508L819.919 37.9564C819.597 38.2794 819.114 38.4409 818.631 38.4409C818.47 38.4409 818.47 38.4409 818.31 38.4409C817.827 38.2794 817.183 37.9564 817.022 37.4718C813.965 32.3033 809.298 28.9114 805.114 28.9114C804.47 28.9114 803.826 28.9114 803.343 29.073C800.286 29.8805 796.906 32.7879 796.906 35.5336C796.906 36.9873 798.837 38.4409 805.757 43.448L807.367 44.5786C813.804 49.2626 817.183 51.6853 818.631 52.9775C826.356 59.2766 831.023 62.9915 833.276 69.1292C837.138 79.4662 831.666 89.9648 829.252 93.8412C823.459 103.209 812.677 109.347 799.32 111.285H798.998C795.619 112.254 792.239 112.416 789.182 112.416Z" fill="url(#paint7_linear_92)"/>
<path d="M805.597 5.00702C827.804 5.00702 836.977 21.1587 836.977 21.1587L818.471 36.6643C814.93 30.6882 809.62 27.1348 804.792 27.1348C803.987 27.1348 803.344 27.2963 802.539 27.4579C798.677 28.427 794.654 32.1419 794.654 35.8567C794.654 38.441 796.907 39.8947 805.918 46.5169C812.355 51.2008 815.735 53.6236 817.183 54.9157C824.747 61.0534 829.092 64.6067 831.184 70.2598C835.046 80.7584 828.287 91.7416 827.322 93.3568C818.471 107.57 801.252 109.508 798.516 109.831C795.136 110.316 791.918 110.478 789.021 110.478C760.859 110.478 754.261 90.1264 754.261 90.1264L772.768 73.4902C774.055 78.1742 784.354 86.25 792.401 86.25C795.297 86.25 797.872 85.2809 799.642 82.8582C806.884 73.4902 791.757 65.8989 791.757 65.8989C791.757 65.8989 778.078 59.7612 770.837 45.2247C763.595 30.6882 776.63 7.26826 801.734 5.16854C803.022 5.00702 804.309 5.00702 805.597 5.00702ZM805.597 1.13062C804.148 1.13062 802.7 1.13062 801.252 1.29213C787.412 2.42275 775.342 9.85253 769.066 21.3202C764.239 30.0421 763.595 39.5716 767.296 47.0014C774.86 62.0225 788.699 68.6447 790.309 69.2907C792.079 70.2598 797.067 73.4902 797.872 76.7205C798.033 77.5281 798.033 78.6587 796.746 80.2739C796.102 81.0815 794.975 82.2121 792.562 82.2121C785.803 82.2121 777.435 74.9438 776.63 72.198C776.308 70.9059 775.342 69.9368 774.055 69.6138C773.733 69.4523 773.411 69.4523 772.929 69.4523C771.963 69.4523 770.998 69.7753 770.354 70.4214L752.008 87.2191C750.882 88.1882 750.399 89.8034 750.882 91.257C751.204 92.2261 758.606 114.354 789.343 114.354C792.562 114.354 795.941 114.031 799.32 113.546H799.642C813.643 111.608 824.908 105.147 831.023 95.295C833.598 91.0955 839.391 79.9509 835.368 68.8062C832.954 62.184 827.804 57.9846 820.08 51.6854C818.471 50.3933 815.252 47.9705 808.654 43.2865L807.045 42.1559C802.861 39.0871 799.481 36.6643 798.999 35.6952C798.999 34.2416 801.413 31.8188 803.826 31.1728C804.309 31.0112 804.631 31.0112 805.114 31.0112C808.654 31.0112 812.677 33.9185 815.413 38.6025C816.057 39.5716 817.022 40.2177 818.149 40.5407C818.31 40.5407 818.632 40.5407 818.793 40.5407C819.758 40.5407 820.563 40.2177 821.206 39.5716L839.713 24.066C841.161 22.9354 841.483 20.8357 840.518 19.2205C840.035 18.5744 829.896 1.13062 805.597 1.13062Z" fill="#FCFAFB"/>
<path d="M626.968 5.8147H612.163L547.471 109.509H579.012L586.093 98.3639H621.014L623.428 109.509H651.751L626.968 5.8147ZM606.852 72.5212L609.266 67.1911L610.876 72.5212H606.852Z" fill="url(#paint8_linear_92)"/>
<path d="M626.968 5.81464L651.751 109.508H623.589L621.175 98.3638H586.254L579.173 109.508H547.631L612.324 5.81464H626.968ZM626.968 0.807617H612.163C610.393 0.807617 608.783 1.77672 607.818 3.23037L543.126 106.924C542.16 108.539 542.16 110.478 542.965 112.093C543.93 113.708 545.539 114.677 547.471 114.677H579.012C580.782 114.677 582.391 113.708 583.357 112.254L588.989 103.371H616.991L618.6 110.478C619.083 112.9 621.175 114.516 623.589 114.516H651.751C653.36 114.516 654.808 113.869 655.774 112.577C656.739 111.285 657.061 109.67 656.739 108.216L631.957 4.68402C631.313 2.42279 629.221 0.807617 626.968 0.807617Z" fill="#FCFAFB"/>
<path d="M609.266 67.3525L610.876 72.6826H606.853L609.266 67.3525ZM610.071 56.5309L605.726 65.7374L603.312 71.0674L600.737 76.559H606.853H610.876H616.025L614.577 71.552L612.968 66.2219L610.071 56.5309Z" fill="#FCFAFB"/>
</g>
<defs>
<linearGradient id="paint0_linear_92" x1="67.5731" y1="3.31062" x2="67.5731" y2="112.562" gradientUnits="userSpaceOnUse">
<stop stop-color="#6992CC"/>
<stop offset="0.2549" stop-color="#2D2B70"/>
<stop offset="0.3231" stop-color="#352B70"/>
<stop offset="0.4343" stop-color="#4A2B72"/>
<stop offset="0.5746" stop-color="#672A74"/>
<stop offset="0.7385" stop-color="#8D2878"/>
<stop offset="0.9203" stop-color="#BF237C"/>
<stop offset="1" stop-color="#DA217F"/>
</linearGradient>
<linearGradient id="paint1_linear_92" x1="171.679" y1="3.31062" x2="171.679" y2="110.894" gradientUnits="userSpaceOnUse">
<stop stop-color="#6992CC"/>
<stop offset="0.2549" stop-color="#2D2B70"/>
<stop offset="0.3231" stop-color="#352B70"/>
<stop offset="0.4343" stop-color="#4A2B72"/>
<stop offset="0.5746" stop-color="#672A74"/>
<stop offset="0.7385" stop-color="#8D2878"/>
<stop offset="0.9203" stop-color="#BF237C"/>
<stop offset="1" stop-color="#DA217F"/>
</linearGradient>
<linearGradient id="paint2_linear_92" x1="257.739" y1="3.3106" x2="257.739" y2="110.894" gradientUnits="userSpaceOnUse">
<stop stop-color="#6992CC"/>
<stop offset="0.2549" stop-color="#2D2B70"/>
<stop offset="0.3231" stop-color="#352B70"/>
<stop offset="0.4343" stop-color="#4A2B72"/>
<stop offset="0.5746" stop-color="#672A74"/>
<stop offset="0.7385" stop-color="#8D2878"/>
<stop offset="0.9203" stop-color="#BF237C"/>
<stop offset="1" stop-color="#DA217F"/>
</linearGradient>
<linearGradient id="paint3_linear_92" x1="321.824" y1="5.25647" x2="321.824" y2="108.954" gradientUnits="userSpaceOnUse">
<stop stop-color="#6992CC"/>
<stop offset="0.2549" stop-color="#2D2B70"/>
<stop offset="0.3231" stop-color="#352B70"/>
<stop offset="0.4343" stop-color="#4A2B72"/>
<stop offset="0.5746" stop-color="#672A74"/>
<stop offset="0.7385" stop-color="#8D2878"/>
<stop offset="0.9203" stop-color="#BF237C"/>
<stop offset="1" stop-color="#DA217F"/>
</linearGradient>
<linearGradient id="paint4_linear_92" x1="426.375" y1="5.14531" x2="426.375" y2="108.955" gradientUnits="userSpaceOnUse">
<stop stop-color="#6992CC"/>
<stop offset="0.2549" stop-color="#2D2B70"/>
<stop offset="0.3231" stop-color="#352B70"/>
<stop offset="0.4343" stop-color="#4A2B72"/>
<stop offset="0.5746" stop-color="#672A74"/>
<stop offset="0.7385" stop-color="#8D2878"/>
<stop offset="0.9203" stop-color="#BF237C"/>
<stop offset="1" stop-color="#DA217F"/>
</linearGradient>
<linearGradient id="paint5_linear_92" x1="515.598" y1="3.31062" x2="515.598" y2="111.728" gradientUnits="userSpaceOnUse">
<stop stop-color="#6992CC"/>
<stop offset="0.2549" stop-color="#2D2B70"/>
<stop offset="0.3231" stop-color="#352B70"/>
<stop offset="0.4343" stop-color="#4A2B72"/>
<stop offset="0.5746" stop-color="#672A74"/>
<stop offset="0.7385" stop-color="#8D2878"/>
<stop offset="0.9203" stop-color="#BF237C"/>
<stop offset="1" stop-color="#DA217F"/>
</linearGradient>
<linearGradient id="paint6_linear_92" x1="705.146" y1="5.25647" x2="705.146" y2="109.79" gradientUnits="userSpaceOnUse">
<stop stop-color="#6992CC"/>
<stop offset="0.2549" stop-color="#2D2B70"/>
<stop offset="0.3231" stop-color="#352B70"/>
<stop offset="0.4343" stop-color="#4A2B72"/>
<stop offset="0.5746" stop-color="#672A74"/>
<stop offset="0.7385" stop-color="#8D2878"/>
<stop offset="0.9203" stop-color="#BF237C"/>
<stop offset="1" stop-color="#DA217F"/>
</linearGradient>
<linearGradient id="paint7_linear_92" x1="795.797" y1="3.0345" x2="795.797" y2="112.424" gradientUnits="userSpaceOnUse">
<stop stop-color="#6992CC"/>
<stop offset="0.2549" stop-color="#2D2B70"/>
<stop offset="0.3231" stop-color="#352B70"/>
<stop offset="0.4343" stop-color="#4A2B72"/>
<stop offset="0.5746" stop-color="#672A74"/>
<stop offset="0.7385" stop-color="#8D2878"/>
<stop offset="0.9203" stop-color="#BF237C"/>
<stop offset="1" stop-color="#DA217F"/>
</linearGradient>
<linearGradient id="paint8_linear_92" x1="599.54" y1="5.88043" x2="599.54" y2="109.578" gradientUnits="userSpaceOnUse">
<stop stop-color="#6992CC"/>
<stop offset="0.2549" stop-color="#2D2B70"/>
<stop offset="0.3231" stop-color="#352B70"/>
<stop offset="0.4343" stop-color="#4A2B72"/>
<stop offset="0.5746" stop-color="#672A74"/>
<stop offset="0.7385" stop-color="#8D2878"/>
<stop offset="0.9203" stop-color="#BF237C"/>
<stop offset="1" stop-color="#DA217F"/>
</linearGradient>
<clipPath id="clip0_92">
<rect width="841" height="115" fill="white"/>
</clipPath>
</defs>
</svg>
