<svg width="41" height="41" viewBox="0 0 41 41" fill="none" xmlns="http://www.w3.org/2000/svg">
<path d="M41 20.5C41 31.8212 31.8212 41 20.5 41C9.17881 41 0 31.8212 0 20.5C0 9.17881 9.17881 0 20.5 0C31.8236 0 41 9.17881 41 20.5Z" fill="white"/>
<path d="M10.0286 21.715L10.1151 21.5736L15.328 13.0859C15.4042 12.9616 15.5833 12.9745 15.641 13.1095C16.5118 15.1409 17.2633 17.6672 16.9113 19.2401C16.761 19.8872 16.3492 20.7636 15.8859 21.5736C15.8263 21.6914 15.7604 21.8071 15.6904 21.9186C15.6575 21.97 15.6018 22 15.5421 22H10.181C10.0368 22 9.95245 21.8371 10.0286 21.715Z" fill="#040813"/>
<path d="M34 22.7008V24.0361C34 24.1128 33.9523 24.1809 33.883 24.2107C33.4584 24.3896 32.0045 25.0456 31.4 25.8718C29.8573 27.9823 28.6787 31 26.044 31H15.0525C11.1568 31 8 27.8865 8 24.0446V23.9211C8 23.8189 8.0845 23.7358 8.18849 23.7358H14.3158C14.4372 23.7358 14.526 23.8466 14.5152 23.9637C14.4718 24.3556 14.5455 24.7559 14.734 25.1201C15.098 25.8463 15.852 26.2999 16.6667 26.2999H19.7V23.9722H16.7013C16.5475 23.9722 16.4565 23.7976 16.5453 23.6741C16.5778 23.6251 16.6147 23.574 16.6537 23.5165C16.9375 23.1204 17.3427 22.5049 17.7456 21.8042C18.0208 21.3315 18.2873 20.8267 18.5018 20.3199C18.5452 20.2283 18.5798 20.1347 18.6145 20.043C18.673 19.8812 18.7337 19.73 18.777 19.5788C18.8203 19.451 18.855 19.3169 18.8897 19.1912C18.9915 18.761 19.0348 18.3053 19.0348 17.8325C19.0348 17.6472 19.0261 17.4534 19.0088 17.2681C19.0002 17.0658 18.9742 16.8635 18.9482 16.6612C18.9308 16.4823 18.8984 16.3056 18.8637 16.1203C18.8203 15.8498 18.7597 15.5815 18.6903 15.311L18.6665 15.2088C18.6145 15.0235 18.5711 14.8468 18.5105 14.6615C18.3393 14.0801 18.1422 13.5136 17.9342 12.9833C17.8583 12.7725 17.7717 12.5702 17.685 12.3679C17.5572 12.0633 17.4272 11.7865 17.308 11.5245C17.2473 11.4053 17.1953 11.2967 17.1433 11.1859C17.0848 11.0603 17.0242 10.9347 16.9635 10.8153C16.9202 10.7238 16.8703 10.6386 16.8356 10.5534L16.4652 9.88046C16.4132 9.78889 16.4998 9.68027 16.6017 9.70796L18.92 10.3256H18.9265C18.9308 10.3256 18.933 10.3277 18.9352 10.3277L19.2406 10.4107L19.5765 10.5044L19.7 10.5385V9.18409C19.7 8.53027 20.233 8 20.8917 8C21.221 8 21.52 8.13202 21.7345 8.34713C21.949 8.56224 22.0833 8.85612 22.0833 9.18409V11.1944L22.3303 11.2626C22.3498 11.269 22.3693 11.2775 22.3867 11.2903C22.4473 11.335 22.534 11.401 22.6445 11.4819C22.7311 11.5501 22.8243 11.6331 22.937 11.7183C23.1602 11.8951 23.4267 12.123 23.7192 12.3849C23.7972 12.4509 23.873 12.5191 23.9423 12.5872C24.3193 12.9322 24.7418 13.3369 25.1448 13.7841C25.2575 13.9097 25.368 14.0375 25.4806 14.1717C25.5934 14.308 25.7125 14.4421 25.8165 14.5763C25.953 14.7552 26.1003 14.9404 26.2282 15.1343C26.2888 15.2258 26.3582 15.3195 26.4167 15.4111C26.5813 15.656 26.7265 15.9095 26.8652 16.1629C26.9237 16.28 26.9843 16.4078 27.0363 16.5334C27.1901 16.872 27.3115 17.217 27.3895 17.5621C27.4133 17.6366 27.4306 17.7175 27.4393 17.7899V17.8069C27.4653 17.9092 27.474 18.0178 27.4827 18.1285C27.5173 18.482 27.5 18.8355 27.422 19.1912C27.3895 19.3424 27.3461 19.4851 27.2942 19.6363C27.2422 19.7811 27.1901 19.9323 27.123 20.075C26.993 20.371 26.8392 20.667 26.6572 20.9439C26.5987 21.0461 26.5293 21.1547 26.46 21.2569C26.3842 21.3655 26.3061 21.4678 26.2368 21.5679C26.1415 21.6957 26.0397 21.8298 25.9356 21.9491C25.8425 22.0747 25.7472 22.2004 25.6432 22.3111C25.498 22.4793 25.3593 22.6391 25.2142 22.7924C25.1275 22.8925 25.0343 22.9947 24.939 23.0863C24.8458 23.1885 24.7505 23.2801 24.6638 23.3653C24.5187 23.508 24.3973 23.6187 24.2955 23.7103L24.0572 23.9254C24.0225 23.9552 23.977 23.9722 23.9293 23.9722H22.0833V26.2999H24.406C24.926 26.2999 25.42 26.1189 25.8187 25.7867C25.9551 25.6695 26.551 25.1627 27.2552 24.3982C27.279 24.3726 27.3093 24.3534 27.344 24.3449L33.7595 22.5219C33.8787 22.4879 34 22.5773 34 22.7008Z" fill="#040813"/>
</svg>
