<svg width="47" height="47" viewBox="0 0 47 47" fill="none" xmlns="http://www.w3.org/2000/svg">
<g clip-path="url(#clip0_179:1239)">
<path d="M22.6036 39.1666H4.69962C2.96915 39.1666 1.56641 37.7637 1.56641 36.0334V32.9H25.6132L22.6036 39.1666Z" fill="#D3DCFB"/>
<path d="M42.3027 14.1V27.2635V36.0332H4.69962C2.96915 36.0332 1.56641 34.6304 1.56641 32.8999V14.1L23.5013 6.2666L42.3027 14.1Z" fill="#EBF5FC"/>
<path d="M7.1001 20.3667H5.43555C5.02999 20.3667 4.70117 20.0379 4.70117 19.6323V17.9678C4.70117 17.5622 5.02999 17.2334 5.43555 17.2334H7.1001C7.50566 17.2334 7.83448 17.5622 7.83448 17.9678V19.6323C7.83448 20.0379 7.50566 20.3667 7.1001 20.3667Z" fill="#3C58A0"/>
<path d="M13.3667 20.3667H11.7021C11.2966 20.3667 10.9678 20.0379 10.9678 19.6323V17.9678C10.9678 17.5622 11.2966 17.2334 11.7021 17.2334H13.3667C13.7723 17.2334 14.1011 17.5622 14.1011 17.9678V19.6323C14.1011 20.0379 13.7723 20.3667 13.3667 20.3667Z" fill="#3C58A0"/>
<path d="M19.6333 20.3667H17.9688C17.5632 20.3667 17.2344 20.0379 17.2344 19.6323V17.9678C17.2344 17.5622 17.5632 17.2334 17.9688 17.2334H19.6333C20.0389 17.2334 20.3677 17.5622 20.3677 17.9678V19.6323C20.3677 20.0379 20.039 20.3667 19.6333 20.3667Z" fill="#3C58A0"/>
<path d="M25.8999 20.3667H24.2354C23.8298 20.3667 23.501 20.0379 23.501 19.6323V17.9678C23.501 17.5622 23.8298 17.2334 24.2354 17.2334H25.8999C26.3055 17.2334 26.6343 17.5622 26.6343 17.9678V19.6323C26.6343 20.0379 26.3055 20.3667 25.8999 20.3667Z" fill="#3C58A0"/>
<path d="M32.1655 20.3667H30.501C30.0954 20.3667 29.7666 20.0379 29.7666 19.6323V17.9678C29.7666 17.5622 30.0954 17.2334 30.501 17.2334H32.1655C32.5711 17.2334 32.8999 17.5622 32.8999 17.9678V19.6323C32.8999 20.0379 32.5712 20.3667 32.1655 20.3667Z" fill="#3C58A0"/>
<path d="M38.4321 20.3667H36.7676C36.362 20.3667 36.0332 20.0379 36.0332 19.6323V17.9678C36.0332 17.5622 36.362 17.2334 36.7676 17.2334H38.4321C38.8377 17.2334 39.1665 17.5622 39.1665 17.9678V19.6323C39.1665 20.0379 38.8377 20.3667 38.4321 20.3667Z" fill="#3C58A0"/>
<path d="M7.1001 26.6333H5.43555C5.02999 26.6333 4.70117 26.3045 4.70117 25.8989V24.2344C4.70117 23.8288 5.02999 23.5 5.43555 23.5H7.1001C7.50566 23.5 7.83448 23.8288 7.83448 24.2344V25.8989C7.83448 26.3046 7.50566 26.6333 7.1001 26.6333Z" fill="#3C58A0"/>
<path d="M13.3667 26.6333H11.7021C11.2966 26.6333 10.9678 26.3045 10.9678 25.8989V24.2344C10.9678 23.8288 11.2966 23.5 11.7021 23.5H13.3667C13.7723 23.5 14.1011 23.8288 14.1011 24.2344V25.8989C14.1011 26.3046 13.7723 26.6333 13.3667 26.6333Z" fill="#3C58A0"/>
<path d="M19.6333 26.6333H17.9688C17.5632 26.6333 17.2344 26.3045 17.2344 25.8989V24.2344C17.2344 23.8288 17.5632 23.5 17.9688 23.5H19.6333C20.0389 23.5 20.3677 23.8288 20.3677 24.2344V25.8989C20.3677 26.3046 20.039 26.6333 19.6333 26.6333Z" fill="#3C58A0"/>
<path d="M26.6343 26.6333V24.2833C26.6343 23.8507 26.2836 23.5 25.851 23.5H24.2843C23.8516 23.5 23.501 23.8507 23.501 24.2833V25.85C23.501 26.2826 23.8517 26.6333 24.2843 26.6333H26.6343Z" fill="#3C58A0"/>
<path d="M7.1001 32.9H5.43555C5.02999 32.9 4.70117 32.5711 4.70117 32.1656V30.501C4.70117 30.0955 5.02999 29.7667 5.43555 29.7667H7.1001C7.50566 29.7667 7.83448 30.0955 7.83448 30.501V32.1656C7.83448 32.5711 7.50566 32.9 7.1001 32.9Z" fill="#3C58A0"/>
<path d="M13.3667 32.9H11.7021C11.2966 32.9 10.9678 32.5711 10.9678 32.1656V30.501C10.9678 30.0955 11.2966 29.7667 11.7021 29.7667H13.3667C13.7723 29.7667 14.1011 30.0955 14.1011 30.501V32.1656C14.1011 32.5711 13.7723 32.9 13.3667 32.9Z" fill="#3C58A0"/>
<path d="M19.6333 32.9H17.9688C17.5632 32.9 17.2344 32.5711 17.2344 32.1656V30.501C17.2344 30.0955 17.5632 29.7667 17.9688 29.7667H19.6333C20.0389 29.7667 20.3677 30.0955 20.3677 30.501V32.1656C20.3677 32.5711 20.039 32.9 19.6333 32.9Z" fill="#3C58A0"/>
<path d="M38.4103 17.2333H36.7901C36.6921 17.2333 36.5987 17.2526 36.5127 17.2864C36.7931 17.3971 36.9918 17.67 36.9918 17.9898V19.61C36.9918 19.9298 36.793 20.2026 36.5127 20.3133C36.5987 20.3473 36.6921 20.3666 36.7901 20.3666H38.4103C38.8282 20.3666 39.1669 20.0279 39.1669 19.6101V17.9899C39.1668 17.572 38.8281 17.2333 38.4103 17.2333Z" fill="#2A428C"/>
<path d="M32.1437 17.2333H30.5235C30.4255 17.2333 30.3321 17.2526 30.2461 17.2864C30.5265 17.3971 30.7252 17.67 30.7252 17.9898V19.61C30.7252 19.9298 30.5264 20.2026 30.2461 20.3133C30.3321 20.3473 30.4255 20.3666 30.5235 20.3666H32.1437C32.5616 20.3666 32.9002 20.0279 32.9002 19.6101V17.9899C32.9002 17.572 32.5616 17.2333 32.1437 17.2333Z" fill="#2A428C"/>
<path d="M25.8771 17.2333H24.2569C24.1589 17.2333 24.0655 17.2526 23.9795 17.2864C24.2599 17.3971 24.4587 17.67 24.4587 17.9898V19.61C24.4587 19.9298 24.2599 20.2026 23.9795 20.3133C24.0655 20.3473 24.1589 20.3666 24.2569 20.3666H25.8771C26.295 20.3666 26.6337 20.0279 26.6337 19.6101V17.9899C26.6336 17.572 26.2949 17.2333 25.8771 17.2333Z" fill="#2A428C"/>
<path d="M19.6105 17.2333H17.9903C17.8923 17.2333 17.7989 17.2526 17.7129 17.2864C17.9933 17.3971 18.1921 17.67 18.1921 17.9898V19.61C18.1921 19.9298 17.9933 20.2026 17.7129 20.3133C17.7989 20.3473 17.8923 20.3666 17.9903 20.3666H19.6105C20.0284 20.3666 20.3671 20.0279 20.3671 19.6101V17.9899C20.367 17.572 20.0284 17.2333 19.6105 17.2333Z" fill="#2A428C"/>
<path d="M13.3449 17.2333H11.7247C11.6266 17.2333 11.5333 17.2526 11.4473 17.2864C11.7277 17.3971 11.9264 17.67 11.9264 17.9898V19.61C11.9264 19.9298 11.7276 20.2026 11.4473 20.3133C11.5333 20.3473 11.6266 20.3666 11.7247 20.3666H13.3449C13.7627 20.3666 14.1015 20.0279 14.1015 19.6101V17.9899C14.1015 17.572 13.7627 17.2333 13.3449 17.2333Z" fill="#2A428C"/>
<path d="M7.07731 17.2333H5.4571C5.35906 17.2333 5.2657 17.2526 5.17969 17.2864C5.46013 17.3971 5.65887 17.67 5.65887 17.9898V19.61C5.65887 19.9298 5.46013 20.2026 5.17969 20.3133C5.2657 20.3473 5.35906 20.3666 5.4571 20.3666H7.07731C7.49517 20.3666 7.8339 20.0279 7.8339 19.6101V17.9899C7.83381 17.572 7.49508 17.2333 7.07731 17.2333Z" fill="#2A428C"/>
<path d="M7.07731 23.5H5.4571C5.35906 23.5 5.2657 23.5193 5.17969 23.5532C5.46013 23.6639 5.65887 23.9367 5.65887 24.2565V25.8768C5.65887 26.1966 5.46013 26.4694 5.17969 26.5802C5.2657 26.6141 5.35906 26.6334 5.4571 26.6334H7.07731C7.49517 26.6334 7.8339 26.2947 7.8339 25.8769V24.2566C7.83381 23.8387 7.49508 23.5 7.07731 23.5Z" fill="#2A428C"/>
<path d="M7.07731 29.7667H5.4571C5.35906 29.7667 5.2657 29.786 5.17969 29.8199C5.46013 29.9306 5.65887 30.2034 5.65887 30.5232V32.1435C5.65887 32.4633 5.46013 32.7362 5.17969 32.8469C5.2657 32.8808 5.35906 32.9001 5.4571 32.9001H7.07731C7.49517 32.9001 7.8339 32.5614 7.8339 32.1436V30.5233C7.83381 30.1054 7.49508 29.7667 7.07731 29.7667Z" fill="#2A428C"/>
<path d="M13.3449 23.5H11.7247C11.6266 23.5 11.5333 23.5193 11.4473 23.5532C11.7277 23.6639 11.9264 23.9367 11.9264 24.2565V25.8768C11.9264 26.1966 11.7276 26.4694 11.4473 26.5802C11.5333 26.6141 11.6266 26.6334 11.7247 26.6334H13.3449C13.7627 26.6334 14.1015 26.2947 14.1015 25.8769V24.2566C14.1015 23.8387 13.7627 23.5 13.3449 23.5Z" fill="#2A428C"/>
<path d="M13.3449 29.7667H11.7247C11.6266 29.7667 11.5333 29.786 11.4473 29.8199C11.7277 29.9306 11.9264 30.2034 11.9264 30.5232V32.1435C11.9264 32.4633 11.7276 32.7362 11.4473 32.8469C11.5333 32.8808 11.6266 32.9001 11.7247 32.9001H13.3449C13.7627 32.9001 14.1015 32.5614 14.1015 32.1436V30.5233C14.1015 30.1054 13.7627 29.7667 13.3449 29.7667Z" fill="#2A428C"/>
<path d="M19.6105 23.5H17.9903C17.8923 23.5 17.7989 23.5193 17.7129 23.5532C17.9933 23.6639 18.1921 23.9367 18.1921 24.2565V25.8768C18.1921 26.1966 17.9933 26.4694 17.7129 26.5802C17.7989 26.6141 17.8923 26.6334 17.9903 26.6334H19.6105C20.0284 26.6334 20.3671 26.2947 20.3671 25.8769V24.2566C20.367 23.8387 20.0284 23.5 19.6105 23.5Z" fill="#2A428C"/>
<path d="M26.6337 26.6333V24.2565C26.6337 23.8386 26.295 23.5 25.8771 23.5H24.2569C24.1589 23.5 24.0655 23.5193 23.9795 23.5532C24.2599 23.6639 24.4587 23.9367 24.4587 24.2565V25.8768C24.4587 26.1966 24.2599 26.4694 23.9795 26.5802C24.0655 26.6141 24.1589 26.6334 24.2569 26.6334H26.6337V26.6333Z" fill="#2A428C"/>
<path d="M19.6105 29.7667H17.9903C17.8923 29.7667 17.7989 29.786 17.7129 29.8199C17.9933 29.9306 18.1921 30.2034 18.1921 30.5232V32.1435C18.1921 32.4633 17.9933 32.7362 17.7129 32.8469C17.7989 32.8808 17.8923 32.9001 17.9903 32.9001H19.6105C20.0284 32.9001 20.3671 32.5614 20.3671 32.1436V30.5233C20.367 30.1054 20.0284 29.7667 19.6105 29.7667Z" fill="#2A428C"/>
<path d="M40.126 13.1932V27.2635V36.0333H42.3026V27.2635V14.1L40.126 13.1932Z" fill="#D3DCFB"/>
<path d="M42.3027 14.1V6.26657C42.3027 4.53611 40.8999 3.13336 39.1695 3.13336H4.69962C2.96915 3.13336 1.56641 4.53611 1.56641 6.26657V14.1H42.3027Z" fill="#FF4155"/>
<path d="M11.4391 6.97588H9.39965C9.00786 6.97588 8.69043 6.65835 8.69043 6.26666C8.69043 5.87496 9.00795 5.55743 9.39965 5.55743H11.4391C11.8309 5.55743 12.1483 5.87496 12.1483 6.26666C12.1483 6.65835 11.8308 6.97588 11.4391 6.97588Z" fill="#E80054"/>
<path d="M16.4498 6.97588H14.4104C14.0186 6.97588 13.7012 6.65835 13.7012 6.26666C13.7012 5.87496 14.0187 5.55743 14.4104 5.55743H16.4498C16.8416 5.55743 17.1591 5.87496 17.1591 6.26666C17.1591 6.65835 16.8416 6.97588 16.4498 6.97588Z" fill="#E80054"/>
<path d="M29.4568 6.97588H27.4172C27.0254 6.97588 26.708 6.65835 26.708 6.26666C26.708 5.87496 27.0255 5.55743 27.4172 5.55743H29.4568C29.8486 5.55743 30.166 5.87496 30.166 6.26666C30.166 6.65835 29.8486 6.97588 29.4568 6.97588Z" fill="#E80054"/>
<path d="M34.4675 6.97588H32.428C32.0362 6.97588 31.7188 6.65835 31.7188 6.26666C31.7188 5.87496 32.0363 5.55743 32.428 5.55743H34.4675C34.8593 5.55743 35.1767 5.87496 35.1767 6.26666C35.1767 6.65835 34.8592 6.97588 34.4675 6.97588Z" fill="#E80054"/>
<path d="M14.8824 5.875C14.8824 6.95655 14.0057 7.8333 12.9241 7.8333C11.8426 7.8333 10.9658 6.95655 10.9658 5.875V1.9583C10.9657 0.876752 11.8425 0 12.924 0C14.0056 0 14.8823 0.876752 14.8823 1.9583V5.875H14.8824Z" fill="#EBF5FC"/>
<path d="M32.9011 5.875C32.9011 6.95655 32.0243 7.8333 30.9428 7.8333C29.8612 7.8333 28.9844 6.95655 28.9844 5.875V1.9583C28.9844 0.876752 29.8611 0 30.9427 0C32.0242 0 32.901 0.876752 32.901 1.9583V5.875H32.9011Z" fill="#EBF5FC"/>
<path d="M30.942 0C30.5399 0 30.1665 0.121539 29.8555 0.329367C30.381 0.680582 30.7274 1.27882 30.7274 1.95839V5.875C30.7274 6.55448 30.381 7.15281 29.8555 7.50403C30.1664 7.71176 30.5399 7.83339 30.942 7.83339C32.0235 7.83339 32.9003 6.95664 32.9003 5.87509V1.9583C32.9004 0.876752 32.0236 0 30.942 0V0Z" fill="#D3DCFB"/>
<path d="M12.9244 0C12.5223 0 12.1489 0.121539 11.8379 0.329367C12.3634 0.680582 12.7098 1.27882 12.7098 1.95839V5.875C12.7098 6.55448 12.3634 7.15281 11.8379 7.50403C12.1488 7.71176 12.5223 7.83339 12.9244 7.83339C14.0059 7.83339 14.8827 6.95664 14.8827 5.87509V1.9583C14.8828 0.876752 14.006 0 12.9244 0V0Z" fill="#D3DCFB"/>
<path d="M39.17 3.1333H36.9941C38.7246 3.1333 40.1274 4.53605 40.1274 6.26651V14.1H42.3031V6.2666C42.3032 4.53614 40.9004 3.1333 39.17 3.1333Z" fill="#E80054"/>
<path d="M1.56641 10.2574H42.3028V11.6759H1.56641V10.2574Z" fill="#E80054"/>
<path d="M33.6846 47C40.1739 47 45.4346 41.7393 45.4346 35.25C45.4346 28.7607 40.1739 23.5 33.6846 23.5C27.1952 23.5 21.9346 28.7607 21.9346 35.25C21.9346 41.7393 27.1952 47 33.6846 47Z" fill="#4FABF7"/>
<path d="M33.6851 43.8667C38.4439 43.8667 42.3017 40.0089 42.3017 35.25C42.3017 30.4911 38.4439 26.6333 33.6851 26.6333C28.9262 26.6333 25.0684 30.4911 25.0684 35.25C25.0684 40.0089 28.9262 43.8667 33.6851 43.8667Z" fill="#EBF5FC"/>
<path d="M33.6848 34.3925C33.293 34.3925 32.9756 34.075 32.9756 33.6833V29.7666C32.9756 29.3749 33.2931 29.0574 33.6848 29.0574C34.0766 29.0574 34.394 29.3749 34.394 29.7666V33.6833C34.394 34.075 34.0765 34.3925 33.6848 34.3925Z" fill="#3C58A0"/>
<path d="M37.6013 35.9592H35.2512C34.8594 35.9592 34.542 35.6417 34.542 35.25C34.542 34.8583 34.8595 34.5408 35.2512 34.5408H37.6013C37.9931 34.5408 38.3105 34.8583 38.3105 35.25C38.3105 35.6417 37.993 35.9592 37.6013 35.9592Z" fill="#3C58A0"/>
<path d="M33.6843 23.5C33.3176 23.5 32.955 23.5177 32.5968 23.5506C38.5761 24.0994 43.2592 29.1274 43.2592 35.25C43.2592 41.3726 38.5761 46.4006 32.5967 46.9494C32.9549 46.9823 33.3175 47 33.6842 47C40.1735 47 45.4342 41.7393 45.4342 35.25C45.4342 28.7607 40.1736 23.5 33.6843 23.5Z" fill="#1886EA"/>
<path d="M33.6844 26.6333C33.3163 26.6333 32.9536 26.6565 32.5977 26.7013C36.8434 27.2357 40.1276 30.8593 40.1276 35.25C40.1276 39.6407 36.8434 43.2643 32.5977 43.7987C32.9536 43.8435 33.3163 43.8667 33.6844 43.8667C38.4433 43.8667 42.3011 40.0088 42.3011 35.25C42.3011 30.4912 38.4433 26.6333 33.6844 26.6333Z" fill="#D3DCFB"/>
<path d="M33.6839 36.8167C34.5491 36.8167 35.2506 36.1153 35.2506 35.25C35.2506 34.3848 34.5491 33.6833 33.6839 33.6833C32.8186 33.6833 32.1172 34.3848 32.1172 35.25C32.1172 36.1153 32.8186 36.8167 33.6839 36.8167Z" fill="#FFDD40"/>
</g>
<defs>
<clipPath id="clip0_179:1239">
<rect width="47" height="47" fill="white"/>
</clipPath>
</defs>
</svg>
