<svg width="40" height="40" viewBox="0 0 40 40" fill="none" xmlns="http://www.w3.org/2000/svg">
<path d="M0 20C0 8.95105 8.95105 0 20 0C31.049 0 40 8.95105 40 20C40 31.049 31.049 40 20 40C8.95105 39.9767 0 31.0256 0 20Z" fill="white"/>
<path d="M33 13.3685C32.0813 13.7704 31.0917 14.0411 30.0542 14.1642C31.1146 13.5387 31.925 12.5503 32.3104 11.3712C31.3187 11.9495 30.2208 12.3698 29.0521 12.5954C28.1188 11.6131 26.7833 11 25.3104 11C21.9979 11 19.5646 14.0411 20.3125 17.1991C16.0521 16.9879 12.2708 14.9783 9.74167 11.9248C8.39792 14.1929 9.04583 17.1622 11.3292 18.6653C10.4896 18.6387 9.7 18.4111 9.00833 18.0337C8.95208 20.3715 10.6563 22.5595 13.1229 23.0476C12.4021 23.2403 11.6104 23.2855 10.8063 23.1337C11.4583 25.1392 13.3562 26.5973 15.5979 26.6383C13.4375 28.3034 10.7229 29.0478 8 28.732C10.2708 30.1654 12.9646 31 15.8604 31C25.3854 31 30.7646 23.0824 30.4396 15.981C31.4437 15.2715 32.3125 14.3815 33 13.3685V13.3685Z" fill="#040813"/>
</svg>
